<?xml version="1.0" encoding="iso-8859-1"?>
<!-- Generator: Adobe Illustrator 19.0.0, SVG Export Plug-In . SVG Version: 6.00 Build 0)  -->
<svg version="1.1" id="Layer_1" xmlns="http://www.w3.org/2000/svg" xmlns:xlink="http://www.w3.org/1999/xlink" x="0px" y="0px"
	 viewBox="0 0 512 512" style="enable-background:new 0 0 512 512;" xml:space="preserve">
<polygon style="fill:#2C3E50;" points="256,0 20.016,168.768 20.016,207.168 256,38.384 491.984,207.168 491.984,168.768 "/>
<polygon style="fill:#E04F5F;" points="59.52,512 59.52,212.384 256,70.896 452.48,212.384 452.48,512 "/>
<g>
	<path style="fill:#FFFFFF;" d="M160.528,245.264h46.176v14.016h-29.008v17.248H204.8v13.888h-27.104v30.368h-17.152v-75.52H160.528
		z"/>
	<path style="fill:#FFFFFF;" d="M288.688,282.24c0,24.768-15.008,39.776-37.072,39.776c-22.416,0-35.536-16.928-35.536-38.432
		c0-22.64,14.448-39.568,36.752-39.568C276.032,244.032,288.688,261.408,288.688,282.24z M234.128,283.248
		c0,14.8,6.944,25.216,18.368,25.216c11.552,0,18.16-10.992,18.16-25.664c0-13.568-6.496-25.216-18.272-25.216
		C240.848,257.584,234.128,268.576,234.128,283.248z"/>
	<path style="fill:#FFFFFF;" d="M299.84,246.272c5.504-0.912,13.664-1.584,22.752-1.584c11.2,0,19.04,1.68,24.432,5.936
		c4.48,3.6,6.944,8.864,6.944,15.808c0,9.632-6.832,16.256-13.328,18.592v0.336c5.264,2.128,8.176,7.168,10.08,14.112
		c2.352,8.512,4.72,18.384,6.176,21.296h-17.488c-1.232-2.128-3.024-8.304-5.264-17.6c-2.016-9.408-5.264-11.984-12.224-12.112
		h-5.152v29.696H299.84V246.272z M316.768,278.784h6.736c8.512,0,13.552-4.272,13.552-10.88c0-6.96-4.704-10.416-12.544-10.528
		c-4.144,0-6.496,0.336-7.728,0.56v20.848H316.768z"/>
	<path style="fill:#FFFFFF;" d="M130.96,359.856c5.504-0.912,13.664-1.584,22.752-1.584c11.2,0,19.04,1.68,24.432,5.936
		c4.48,3.6,6.944,8.864,6.944,15.808c0,9.632-6.832,16.256-13.328,18.592v0.336c5.264,2.128,8.176,7.168,10.08,14.112
		c2.352,8.512,4.72,18.384,6.176,21.296h-17.488c-1.232-2.128-3.024-8.304-5.264-17.6c-2.016-9.408-5.264-11.984-12.224-12.112
		h-5.168v29.696H130.96V359.856z M147.872,392.352h6.736c8.512,0,13.552-4.272,13.552-10.88c0-6.96-4.704-10.416-12.544-10.528
		c-4.144,0-6.496,0.336-7.728,0.56v20.848H147.872z"/>
	<path style="fill:#FFFFFF;" d="M242.32,402.432h-27.776v17.936h31.024v14h-48.192v-75.536H244v14.016h-29.472v15.68h27.776v13.904
		H242.32z"/>
	<path style="fill:#FFFFFF;" d="M257.184,434.368v-75.536h19.952l15.68,27.68c4.48,7.952,8.976,17.36,12.336,25.872h0.336
		c-1.104-9.968-1.456-20.176-1.456-31.488v-22.08h15.68v75.536h-17.92l-16.144-29.136c-4.48-8.064-9.408-17.808-13.104-26.672
		l-0.336,0.128c0.448,9.968,0.672,20.608,0.672,32.944v22.752L257.184,434.368L257.184,434.368z"/>
	<path style="fill:#FFFFFF;" d="M349.04,373.184h-20.288v-14.336H386.8v14.336h-20.624v61.184H349.04L349.04,373.184L349.04,373.184
		z"/>
</g>
<g>
</g>
<g>
</g>
<g>
</g>
<g>
</g>
<g>
</g>
<g>
</g>
<g>
</g>
<g>
</g>
<g>
</g>
<g>
</g>
<g>
</g>
<g>
</g>
<g>
</g>
<g>
</g>
<g>
</g>
</svg>
