<?xml version="1.0" standalone="no"?>
<!DOCTYPE svg PUBLIC "-//W3C//DTD SVG 1.1//EN" "http://www.w3.org/Graphics/SVG/1.1/DTD/svg11.dtd" >
<svg xmlns="http://www.w3.org/2000/svg">
<metadata></metadata>
<defs>
<font id="seraveklight_italic" horiz-adv-x="1040" >
<font-face units-per-em="2048" ascent="1536" descent="-512" />
<missing-glyph horiz-adv-x="430" />
<glyph unicode="&#xfb01;" horiz-adv-x="1069" d="M-317 -418l20 107q79 -23 139 -23q66 0 117.5 25t85 64t60 103.5t41.5 124.5t30 146l131 739h-244l19 109h244l14 78q38 213 141 314t285 101q148 0 233 -40l-24 -107q-90 37 -197 37q-134 0 -205 -68.5t-102 -244.5l-12 -70h526l-172 -977h-133l151 868h-391l-131 -739 q-18 -100 -38.5 -176.5t-56.5 -154t-83 -127.5t-118 -81.5t-160 -31.5q-96 0 -170 24z" />
<glyph unicode="&#xfb02;" horiz-adv-x="1093" d="M-317 -418l20 107q79 -23 139 -23q66 0 117.5 25t85 64t60 103.5t41.5 124.5t30 146l131 739h-244l19 109h244l14 78q40 219 135.5 317t276.5 98q117 0 206 -24h134l-254 -1446h-133l235 1335q-80 25 -186 25q-125 0 -188.5 -70t-94.5 -243l-12 -70h286l-18 -109h-287 l-131 -739q-18 -100 -38.5 -176.5t-56.5 -154t-83 -127.5t-118 -81.5t-160 -31.5q-96 0 -170 24z" />
<glyph unicode="&#xfb03;" horiz-adv-x="1667" d="M-317 -418l20 107q71 -23 143 -23q66 0 117.5 25t85 64t60 103.5t41.5 124.5t30 146l131 739h-243l18 109h244l12 67q40 219 131 322.5t268 103.5q111 0 177 -28l-25 -107q-68 25 -148 25q-116 0 -178.5 -75t-93.5 -249l-10 -59h461l14 78q40 217 140 316t286 99 q149 0 233 -40l-24 -107q-98 37 -197 37q-134 0 -205 -68.5t-102 -244.5l-12 -70h526l-172 -977h-133l152 868h-392l-123 -694q-14 -79 -26 -135.5t-32 -125t-42.5 -116.5t-55.5 -96t-72.5 -77.5t-93.5 -47.5t-118 -18q-78 0 -149 18l20 105q62 -15 119 -15q55 0 98 18 t73.5 54t53 79t38.5 103t27.5 115t24.5 126q1 9 2 13l123 694h-461l-131 -739q-18 -100 -38.5 -176.5t-56.5 -154t-83 -127.5t-118 -81.5t-160 -31.5q-93 0 -174 24z" />
<glyph unicode="&#xfb04;" horiz-adv-x="1687" d="M-317 -418l20 107q79 -23 139 -23q66 0 117.5 25t85 64t60 103.5t41.5 124.5t30 146l131 739h-244l19 109h244l14 78q39 215 131 315t266 100q120 0 195 -34l-25 -105q-71 29 -166 29q-114 0 -177 -71t-93 -242l-12 -70h461l14 78q40 219 135.5 317t276.5 98 q99 0 206 -24h134l-254 -1446h-134l234 1335q-76 25 -184 25q-125 0 -188.5 -70t-94.5 -243l-12 -70h286l-18 -109h-287l-131 -741q-13 -75 -25 -129t-31 -117.5t-40.5 -107t-54 -87.5t-71.5 -70t-92.5 -42t-117.5 -16q-81 0 -160 20l21 107q65 -19 129 -19q46 0 84.5 14 t66 34.5t50.5 58t37.5 71t29 88t22.5 94t19 103.5l131 739h-461l-131 -739q-18 -100 -38.5 -176.5t-56.5 -154t-83 -127.5t-118 -81.5t-160 -31.5q-96 0 -170 24z" />
<glyph horiz-adv-x="0" />
<glyph horiz-adv-x="682" />
<glyph unicode=" "  horiz-adv-x="430" />
<glyph unicode="&#x09;" horiz-adv-x="430" />
<glyph unicode="&#xa0;" horiz-adv-x="430" />
<glyph unicode="!" horiz-adv-x="557" d="M111 74q0 49 30 78.5t80 29.5q40 0 64 -25t24 -63q0 -45 -30 -76.5t-80 -31.5q-40 0 -64 25t-24 63zM213 336l78 616l71 412h140l-72 -412l-141 -616h-76z" />
<glyph unicode="&#x22;" horiz-adv-x="802" d="M236 891l67 473h133l-98 -473h-102zM592 891l67 473h134l-99 -473h-102z" />
<glyph unicode="#" horiz-adv-x="1323" d="M74 379l16 94h244l123 434h-250l16 94h260l101 363h110l-102 -363h397l103 363h110l-102 -363h219l-16 -94h-230l-123 -434h232l-17 -94h-239l-109 -379h-110l106 379h-397l-107 -379h-110l108 379h-233zM442 473h398l123 434h-398z" />
<glyph unicode="$" horiz-adv-x="897" d="M55 86l33 104q151 -81 297 -81q120 0 192 57.5t72 171.5q0 94 -51 167.5t-160 168.5q-119 104 -176 186.5t-57 183.5q0 144 91 227.5t234 88.5l43 235h121l-43 -237q132 -17 230 -76l-35 -108q-143 79 -279 79q-104 0 -166.5 -52.5t-62.5 -149.5q0 -77 41.5 -138.5 t132.5 -140.5q117 -103 161 -157q109 -129 109 -267q0 -142 -97 -238t-251 -108l-41 -233h-123l43 235q-133 18 -258 82z" />
<glyph unicode="%" horiz-adv-x="1748" d="M174 915q0 125 44 231.5t133.5 174.5t207.5 68q129 0 200.5 -89.5t71.5 -222.5q0 -63 -15.5 -128.5t-48 -128.5t-77 -112.5t-109 -79.5t-137.5 -30q-128 0 -199 92t-71 225zM287 915q0 -99 39 -161t127 -62q82 0 145 61t92 145.5t29 172.5q0 98 -44 160.5t-128 62.5 q-82 0 -143.5 -59.5t-89 -144t-27.5 -175.5zM408 37l886 1352l90 -62l-888 -1352zM971 293q0 125 44 231.5t133.5 174t207.5 67.5q129 0 200.5 -89t71.5 -222q0 -63 -15.5 -129t-48 -129t-77 -112.5t-109 -79.5t-137.5 -30q-128 0 -199 92.5t-71 225.5zM1083 293 q0 -99 39 -161t127 -62q62 0 114.5 35.5t85 91.5t50 121.5t17.5 130.5q0 98 -44.5 160.5t-128.5 62.5q-82 0 -143.5 -59.5t-89 -144t-27.5 -175.5z" />
<glyph unicode="&#x26;" horiz-adv-x="1423" d="M82 276q0 34 7 66t16 57.5t28.5 53.5t34 47t44 44.5t46.5 39t53.5 38t52.5 35t56 35.5q-141 169 -141 355q0 156 98.5 249t265.5 93q128 0 211.5 -71t83.5 -192q0 -44 -14.5 -88.5t-33.5 -79t-54.5 -74t-60.5 -63t-70 -57t-63.5 -46t-59.5 -40.5q109 -131 348 -322 q128 163 237 412l99 -45q-107 -252 -252 -428q118 -95 323 -227l-61 -93q-186 117 -338 236q-233 -236 -498 -236q-165 0 -261.5 84.5t-96.5 216.5zM213 281q0 -95 64.5 -149t171.5 -54q111 0 208.5 49t198.5 147q-208 155 -367 338q-127 -81 -172 -121q-104 -93 -104 -210z M401 1044q0 -82 29.5 -150.5t87.5 -139.5q40 27 59 40t56.5 41t57.5 47.5t47.5 50t41.5 57t24.5 60t10.5 68.5q0 73 -48 121.5t-132 48.5q-107 0 -170.5 -64.5t-63.5 -179.5z" />
<glyph unicode="'" horiz-adv-x="446" d="M236 891l67 473h133l-98 -473h-102z" />
<glyph unicode="(" horiz-adv-x="673" d="M145 289q0 343 119.5 641t353.5 598l97 -74q-220 -292 -328 -564.5t-108 -598.5q0 -286 120 -625l-114 -47q-74 195 -107 351t-33 319z" />
<glyph unicode=")" horiz-adv-x="673" d="M-25 -307q216 288 326.5 568.5t110.5 594.5q0 285 -121 625l115 47q139 -353 139 -670q0 -232 -58 -448t-158.5 -401.5t-256.5 -389.5z" />
<glyph unicode="*" horiz-adv-x="823" d="M215 1001l252 127l-229 144l41 63l227 -145l45 256l74 -12l-43 -246l245 129l31 -66l-250 -129l211 -131l-39 -63l-221 139l-43 -256l-74 12l41 238l-237 -125z" />
<glyph unicode="+" horiz-adv-x="1214" d="M186 610v105h402v428h121v-428h401v-105h-401v-428h-121v428h-402z" />
<glyph unicode="," horiz-adv-x="462" d="M-57 -242q75 101 118.5 203t67.5 227l123 -22q-21 -137 -75 -249.5t-146 -219.5z" />
<glyph unicode="-" horiz-adv-x="714" d="M117 475l16 111h481l-18 -111h-479z" />
<glyph unicode="." horiz-adv-x="495" d="M76 74q0 49 30 78.5t80 29.5q40 0 64 -25t24 -63q0 -45 -30 -76.5t-80 -31.5q-40 0 -64 25t-24 63z" />
<glyph unicode="/" horiz-adv-x="858" d="M-2 -150l793 1569l102 -55l-793 -1569z" />
<glyph unicode="0" horiz-adv-x="1175" d="M133 463q0 95 14.5 196t43 206t77.5 198t112.5 166.5t153 116.5t193.5 43q99 0 174 -39t120 -107t67 -153t22 -183q0 -72 -10.5 -155t-34 -173.5t-57 -176t-83.5 -163.5t-109.5 -136.5t-138.5 -93t-167 -34.5q-94 0 -168 40t-118.5 109t-67.5 155t-23 184zM266 463 q0 -82 13.5 -148.5t42 -119.5t78 -82t116.5 -29q86 0 162.5 54t129.5 141t92 196t58 219.5t19 210.5q0 162 -66.5 268.5t-195.5 106.5q-90 0 -167 -56.5t-127.5 -145t-86.5 -199t-52 -216.5t-16 -200z" />
<glyph unicode="1" horiz-adv-x="671" d="M150 1206l385 158h100l-240 -1364h-133l213 1210l-289 -110z" />
<glyph unicode="2" horiz-adv-x="921" d="M16 86q190 174 394 385q55 57 88.5 94.5t83.5 101.5t79 117t50.5 121t21.5 133q0 107 -62 173.5t-173 66.5q-115 0 -246 -72l-35 103q131 80 295 80q162 0 258 -91.5t96 -246.5q0 -92 -27.5 -179t-81 -168.5t-107.5 -144.5t-132 -141q-152 -152 -325 -307h593l-18 -111 h-735z" />
<glyph unicode="3" horiz-adv-x="917" d="M47 78l39 102q156 -96 303 -96q139 0 213 74t74 192q0 132 -110.5 213.5t-272.5 81.5h-25l8 111h21q122 0 222 37.5t161 112.5t61 173q0 92 -64.5 145.5t-170.5 53.5q-127 0 -252 -64l-27 103q125 72 299 72q149 0 248.5 -78.5t99.5 -214.5q0 -150 -98.5 -252 t-265.5 -148q130 -39 214.5 -126t84.5 -218q0 -164 -116.5 -270.5t-307.5 -106.5q-173 0 -338 103z" />
<glyph unicode="4" horiz-adv-x="1036" d="M61 516l734 848h141l-148 -842h181l-19 -106h-180l-74 -416h-127l74 416h-559zM217 522h445l116 664z" />
<glyph unicode="5" horiz-adv-x="944" d="M47 55l31 109q156 -78 303 -78q154 0 239 78t85 203q0 276 -500 303l123 694h616l-18 -111h-484l-86 -489q71 -6 136 -22t129.5 -46.5t111.5 -72.5t76 -105.5t29 -140.5q0 -178 -128 -290t-327 -112q-85 0 -176 21.5t-160 58.5z" />
<glyph unicode="6" horiz-adv-x="1079" d="M113 465q0 176 66.5 332t182.5 272t269 198t330 122l30 -105q-302 -85 -484.5 -246t-240.5 -385q52 52 134.5 87.5t187.5 35.5q161 0 264.5 -102.5t103.5 -267.5q0 -185 -122.5 -308t-309.5 -123q-102 0 -182 40t-129 109t-74.5 156t-25.5 185zM242 453 q0 -69 16.5 -133.5t49.5 -118.5t89.5 -86.5t128.5 -32.5q131 0 215 87.5t84 223.5q0 126 -69.5 201.5t-186.5 75.5q-171 0 -321 -135q-6 -40 -6 -82z" />
<glyph unicode="7" horiz-adv-x="907" d="M66 41l770 1212h-623l14 111h731l11 -113l-803 -1274z" />
<glyph unicode="8" horiz-adv-x="1048" d="M100 293q0 68 26 129t62 103t93 83t99.5 64t100.5 51q-96 68 -160.5 155.5t-64.5 186.5q0 152 110 238t283 86q152 0 248 -79t96 -200q0 -67 -29.5 -128.5t-83.5 -112t-100.5 -83.5t-109.5 -71q54 -40 92.5 -74.5t77.5 -81t59.5 -100t20.5 -111.5q0 -164 -124.5 -268.5 t-312.5 -104.5q-169 0 -276 90t-107 228zM227 295q0 -101 70 -158t192 -57q135 0 218.5 71.5t83.5 190.5q0 45 -17.5 87.5t-55 84t-68.5 69t-85 70.5q-19 -11 -57 -32.5t-60 -34t-55.5 -34.5t-53.5 -39t-44 -42.5t-37 -50.5t-22 -57.5t-9 -67.5zM383 1067q0 -84 52 -150 t147 -137q47 27 81 49t75 55t66.5 64.5t43.5 72.5t18 83q0 79 -63 129.5t-160 50.5q-114 0 -187 -56t-73 -161z" />
<glyph unicode="9" horiz-adv-x="1050" d="M129 80q303 86 481.5 242t243.5 389q-52 -52 -134.5 -87.5t-187.5 -35.5q-163 0 -265.5 103.5t-102.5 269.5q0 117 49.5 213t149 155.5t233.5 59.5q131 0 226.5 -69t140.5 -177.5t45 -239.5q0 -143 -43.5 -273t-121 -233.5t-184 -188t-232.5 -142.5t-267 -91zM295 967 q0 -129 67.5 -201t188.5 -72q171 0 321 135q7 47 7 82q0 69 -17 133.5t-50 118.5t-89.5 86.5t-128.5 32.5q-136 0 -217.5 -89.5t-81.5 -225.5z" />
<glyph unicode=":" horiz-adv-x="499" d="M76 74q0 49 30 78.5t80 29.5q40 0 64 -25t24 -63q0 -45 -30 -76.5t-80 -31.5q-40 0 -64 25t-24 63zM193 733q0 49 30 79t80 30q40 0 64 -25t24 -63q0 -45 -30 -77t-80 -32q-40 0 -64 25t-24 63z" />
<glyph unicode=";" horiz-adv-x="489" d="M-57 -242q75 101 118.5 203t67.5 227l123 -22q-21 -137 -75 -249.5t-146 -219.5zM182 733q0 49 30.5 79t80.5 30q40 0 64 -25t24 -63q0 -45 -30.5 -77t-80.5 -32q-40 0 -64 25t-24 63z" />
<glyph unicode="&#x3c;" horiz-adv-x="1189" d="M154 610v103l876 448l47 -98l-796 -401l796 -402l-47 -98z" />
<glyph unicode="=" horiz-adv-x="1228" d="M221 395v105h903v-105h-903zM221 823v105h903v-105h-903z" />
<glyph unicode="&#x3e;" horiz-adv-x="1189" d="M154 260l796 402l-796 401l47 98l876 -448v-103l-876 -448z" />
<glyph unicode="?" horiz-adv-x="849" d="M174 74q0 49 30.5 78.5t80.5 29.5q40 0 64 -25t24 -63q0 -45 -30 -76.5t-81 -31.5q-40 0 -64 25t-24 63zM205 498q63 42 99 67t92.5 65t90 69t76.5 68.5t68 73.5t49 74t34.5 81t10.5 83q0 92 -56.5 145.5t-146.5 53.5q-123 0 -256 -76l-37 105q75 42 144 62t157 20 q143 0 236.5 -80t93.5 -222q0 -71 -22.5 -139t-64 -126t-95 -112.5t-119 -105t-132 -97t-138.5 -94.5q-13 -8 -19 -12z" />
<glyph unicode="@" horiz-adv-x="1630" d="M133 428q0 171 57.5 314.5t159 240.5t242.5 151t305 54q287 0 464 -155t177 -400q0 -203 -106.5 -332t-266.5 -129q-97 0 -155 62.5t-58 150.5q-40 -86 -106 -145.5t-137 -59.5q-79 0 -115.5 61t-36.5 154q0 82 22 156t64 132.5t111 93t155 34.5q108 0 203 -45l-53 -301 q-6 -35 -6 -64q0 -67 31.5 -106t93.5 -39q114 0 186 107t72 266q0 221 -149.5 345t-393.5 124q-182 0 -330 -80t-236.5 -233.5t-88.5 -354.5q0 -274 158 -425.5t448 -151.5q271 0 495 108l27 -84q-247 -115 -532 -115q-164 0 -297 50t-221 138.5t-135.5 211t-47.5 266.5z M664 395q0 -125 73 -125q54 0 113 68.5t106 173.5l35 197q-37 12 -90 12q-79 0 -134.5 -50t-79 -121.5t-23.5 -154.5z" />
<glyph unicode="A" horiz-adv-x="1308" d="M-27 0l766 1364h129l291 -1364h-137l-68 348h-643l-190 -348h-148zM371 461h563l-148 766z" />
<glyph unicode="B" horiz-adv-x="1120" d="M82 0l240 1364h366q175 0 277 -78.5t102 -208.5q0 -96 -53.5 -176.5t-134 -128t-174.5 -65.5q139 -31 217.5 -108t78.5 -204q0 -101 -47 -179.5t-125.5 -124t-171 -68.5t-194.5 -23h-381zM233 106h244q106 0 192 29t142.5 96.5t56.5 165.5q0 123 -95.5 187.5t-242.5 64.5 h-200zM348 756h160q107 1 201.5 34.5t158.5 104.5t64 166q0 96 -72.5 146t-197.5 50h-226z" />
<glyph unicode="C" horiz-adv-x="1228" d="M115 584q0 130 29.5 248.5t91 220t148.5 176.5t209.5 117.5t266.5 42.5q220 0 381 -76l-29 -111q-168 74 -350 74q-192 0 -332 -91t-210 -245.5t-70 -351.5q0 -229 128.5 -364.5t371.5 -135.5q155 0 292 47l17 -106q-142 -54 -328 -54q-184 0 -325 78t-216 216t-75 315z " />
<glyph unicode="D" horiz-adv-x="1359" d="M82 0l240 1364h327q295 0 474.5 -156.5t179.5 -427.5q0 -169 -60 -313t-169.5 -247t-271 -161.5t-356.5 -58.5h-364zM236 111h219q173 2 310 53.5t224 141t132.5 209t45.5 261.5q0 225 -145.5 351t-386.5 126h-199z" />
<glyph unicode="E" horiz-adv-x="1005" d="M82 0l240 1364h718l-18 -113h-586l-88 -497h561l-20 -113h-561l-92 -528h591l-20 -113h-725z" />
<glyph unicode="F" horiz-adv-x="954" d="M82 0l240 1364h722l-18 -113h-588l-94 -530h561l-18 -113h-563l-107 -608h-135z" />
<glyph unicode="G" horiz-adv-x="1368" d="M113 592q0 164 50.5 307t144.5 253t242 173.5t331 63.5q276 0 460 -101l-32 -108q-196 96 -428 96q-198 0 -343 -91.5t-217.5 -244.5t-72.5 -348q0 -244 135.5 -376t394.5 -132q134 0 250 29l80 460h127l-94 -542q-71 -26 -178.5 -41t-202.5 -15q-152 0 -274.5 46 t-204 127.5t-125 195t-43.5 248.5z" />
<glyph unicode="H" horiz-adv-x="1349" d="M82 0l240 1364h135l-109 -614h731l109 614h135l-240 -1364h-135l113 633h-733l-111 -633h-135z" />
<glyph unicode="I" horiz-adv-x="503" d="M92 0l240 1364h135l-240 -1364h-135z" />
<glyph unicode="J" horiz-adv-x="495" d="M-199 -221q161 124 246 265.5t119 338.5l172 981h135l-172 -979q-27 -151 -72 -264.5t-132 -223.5t-222 -210z" />
<glyph unicode="K" horiz-adv-x="1130" d="M82 0l240 1364h135l-115 -657l678 657h178l-709 -682l553 -682h-170l-534 684l-121 -684h-135z" />
<glyph unicode="L" horiz-adv-x="919" d="M82 0l240 1364h135l-219 -1251h559l-21 -113h-694z" />
<glyph unicode="M" horiz-adv-x="1665" d="M57 0l305 1364h123l324 -985l649 985h137l-170 -1364h-127l138 1116l-568 -854h-151l-279 871l-254 -1133h-127z" />
<glyph unicode="N" horiz-adv-x="1406" d="M82 0l240 1364h129l596 -1161l204 1161h129l-239 -1364h-131l-594 1161l-205 -1161h-129z" />
<glyph unicode="O" horiz-adv-x="1482" d="M119 555q0 171 51 323t144 265.5t232.5 179.5t305.5 66q172 0 301.5 -76.5t196.5 -208.5t67 -299q0 -127 -32.5 -249t-96.5 -226.5t-151.5 -184t-204 -125t-246.5 -45.5q-134 0 -243 47.5t-179 128t-107.5 184.5t-37.5 220zM254 561q0 -221 119 -348t323 -127 q128 0 239.5 59.5t186.5 158t117.5 227.5t42.5 268q0 212 -121 345.5t-319 133.5q-111 0 -207 -40.5t-165 -109.5t-118.5 -160.5t-73.5 -195t-24 -211.5z" />
<glyph unicode="P" horiz-adv-x="1017" d="M82 0l240 1364h319q178 0 290.5 -96.5t112.5 -253.5q0 -96 -35.5 -174t-95 -130t-141.5 -87t-171.5 -50.5t-188.5 -15.5h-97l-98 -557h-135zM334 668h90q78 0 147.5 11.5t132 37.5t107.5 64.5t71.5 96.5t26.5 130q0 114 -78 179.5t-200 65.5h-193z" />
<glyph unicode="Q" horiz-adv-x="1482" d="M119 555q0 171 51 323t144 265.5t232.5 179.5t305.5 66q172 0 301.5 -76.5t196.5 -208.5t67 -299q0 -244 -116.5 -454t-315.5 -308l340 -248l-76 -92l-395 293q-79 -21 -168 -21q-134 0 -243 47.5t-179 128t-107.5 184.5t-37.5 220zM254 561q0 -221 119 -348t323 -127 q128 0 239.5 59.5t186.5 158t117.5 227.5t42.5 268q0 212 -121 345.5t-319 133.5q-111 0 -207 -40.5t-165 -109.5t-118.5 -160.5t-73.5 -195t-24 -211.5z" />
<glyph unicode="R" horiz-adv-x="1134" d="M82 0l240 1364h342q177 0 288 -94t111 -246q0 -90 -36 -166.5t-98 -129.5t-137 -87.5t-159 -50.5l379 -590h-156l-354 571q-31 -4 -94 -4h-91l-100 -567h-135zM336 678h100q98 0 184 19.5t156 58.5t111 105.5t41 152.5q0 117 -80 178t-209 61h-201z" />
<glyph unicode="S" horiz-adv-x="970" d="M45 49l31 113q176 -76 334 -76q141 0 224 65t83 189q0 48 -18 93t-55.5 88.5t-75 78t-95.5 80.5q-72 57 -112 93t-80 83t-57 93.5t-17 101.5q0 161 107.5 249.5t283.5 88.5q196 0 360 -93l-32 -110q-171 92 -322 92q-118 0 -190 -53.5t-72 -163.5q0 -40 13 -75t44 -70.5 t63.5 -63.5t88.5 -72q124 -95 177 -152q124 -133 124 -280q0 -165 -124.5 -269t-317.5 -104q-91 0 -189.5 19.5t-175.5 54.5z" />
<glyph unicode="T" horiz-adv-x="1007" d="M186 1253l19 111h897l-19 -111h-381l-221 -1253h-135l221 1253h-381z" />
<glyph unicode="U" horiz-adv-x="1359" d="M158 412q0 53 8 100l151 852h136l-152 -860q-8 -44 -8 -96q0 -146 83.5 -234t256.5 -88q171 0 277 98.5t137 278.5l157 901h135l-155 -891q-18 -104 -60 -191.5t-109 -157.5t-167.5 -109.5t-224.5 -39.5q-212 0 -338.5 122.5t-126.5 314.5z" />
<glyph unicode="V" horiz-adv-x="1155" d="M199 1364h133l200 -1200l601 1200h147l-702 -1364h-144z" />
<glyph unicode="W" horiz-adv-x="1875" d="M201 1364h129l116 -1178l547 1178h164l156 -1178l524 1178h141l-626 -1364h-140l-155 1235l-570 -1235h-139z" />
<glyph unicode="X" horiz-adv-x="1234" d="M-4 0l598 707l-324 657h144l266 -559l459 559h161l-563 -672l346 -692h-143l-289 590l-489 -590h-166z" />
<glyph unicode="Y" horiz-adv-x="1046" d="M164 1364h139l250 -696l475 696h158l-588 -829l-94 -535h-135l96 553z" />
<glyph unicode="Z" horiz-adv-x="1075" d="M57 111l899 1142h-696l21 111h845l-18 -111l-901 -1142h719l-19 -111h-833z" />
<glyph unicode="[" horiz-adv-x="708" d="M59 -360l330 1867h361l-21 -108h-227l-291 -1651h227l-18 -108h-361z" />
<glyph unicode="\" horiz-adv-x="858" d="M268 1364l117 18l246 -1566l-119 -21z" />
<glyph unicode="]" horiz-adv-x="706" d="M-25 -360l21 108h227l291 1651h-227l18 108h361l-330 -1867h-361z" />
<glyph unicode="^" horiz-adv-x="1024" d="M164 707l317 657h123l318 -657l-105 -50l-274 590l-275 -590z" />
<glyph unicode="_" horiz-adv-x="827" d="M-180 -512l6 74h838l-9 -74h-835z" />
<glyph unicode="`" horiz-adv-x="788" d="M377 1454h143l94 -319h-108z" />
<glyph unicode="a" d="M82 319q0 104 22.5 202.5t68.5 185t111.5 151t158 102t200.5 37.5q164 0 309 -57l-166 -940h-127l66 381q-33 -71 -70.5 -134t-89 -127t-114 -102t-127.5 -38q-82 0 -138.5 49.5t-80 123.5t-23.5 166zM215 324q0 -238 123 -238q48 0 100 39.5t97.5 100t91.5 143.5 t80.5 159.5t66.5 157.5l33 184q-74 21 -164 21q-100 0 -182 -46t-135 -124.5t-82 -180.5t-29 -216z" />
<glyph unicode="b" horiz-adv-x="1052" d="M80 47l246 1399h133l-131 -748q66 125 167.5 212t219.5 87q121 0 188.5 -99t67.5 -249q0 -106 -21 -203t-66.5 -182.5t-110.5 -148.5t-158 -99t-205 -36q-73 0 -172 20t-158 47zM225 117q81 -31 185 -31q108 0 192 45.5t134.5 124t76 177t25.5 212.5q0 107 -38.5 175.5 t-113.5 68.5q-56 0 -115.5 -38t-111.5 -99.5t-94 -127.5t-74 -135z" />
<glyph unicode="c" horiz-adv-x="862" d="M78 383q0 122 35 232t99 195.5t163.5 136t220.5 50.5q154 0 262 -63l-29 -109q-121 62 -233 62q-119 0 -208 -69t-133 -183t-44 -256q0 -137 62.5 -214t191.5 -77q116 0 233 57l27 -100q-120 -65 -274 -65q-94 0 -167 32.5t-117.5 89t-66.5 127.5t-22 154z" />
<glyph unicode="d" horiz-adv-x="1067" d="M82 324q0 105 21.5 202.5t67.5 183t111 149.5t157.5 101t201.5 37q128 0 207 -32l84 481h133l-254 -1446h-129l51 297q-189 -317 -401 -317q-121 0 -185.5 101t-64.5 243zM215 330q0 -50 5 -88.5t19.5 -76.5t45 -58.5t75.5 -20.5q55 0 114.5 39.5t113 106.5t99 142.5 t85.5 160.5l57 323q-84 33 -182 33q-88 0 -161 -31t-122.5 -84t-83.5 -125.5t-49.5 -153t-15.5 -167.5z" />
<glyph unicode="e" horiz-adv-x="901" d="M80 360q0 121 36 234.5t101 203.5t166 144.5t221 54.5q110 0 184 -58.5t74 -160.5q0 -66 -30.5 -119.5t-85 -89.5t-118 -62t-141 -41t-141 -23t-131.5 -11q-6 -43 -6 -82q0 -121 56 -191.5t175 -70.5q131 0 273 76l26 -101q-143 -83 -307 -83q-172 0 -262 105.5 t-90 274.5zM233 537q66 3 127.5 10t132 24t121.5 41.5t85 66t34 93.5q0 54 -39 88.5t-106 34.5q-131 0 -228.5 -108t-126.5 -250z" />
<glyph unicode="f" horiz-adv-x="735" d="M-317 -418l20 107q79 -23 139 -23q66 0 117.5 25t85 64t60 103.5t41.5 124.5t30 146l131 739h-223l18 109h224l14 78q39 215 133 315t268 100q126 0 213 -43l-24 -106q-99 39 -185 39q-115 0 -179.5 -71.5t-94.5 -241.5l-12 -70h319l-18 -109h-320l-131 -739 q-18 -100 -38.5 -176.5t-56.5 -154t-83 -127.5t-118 -81.5t-160 -31.5q-96 0 -170 24z" />
<glyph unicode="g" horiz-adv-x="1052" d="M10 -356l33 104q150 -82 295 -82q78 0 136.5 26.5t98 79.5t64 122t41.5 165l51 289q-29 -62 -69.5 -119.5t-91 -108.5t-112.5 -81.5t-124 -30.5q-118 0 -180 85t-62 224q0 191 65 343.5t196 244.5t308 92q169 0 308 -57l-156 -877q-44 -254 -154.5 -379.5t-316.5 -125.5 q-81 0 -172.5 24.5t-157.5 61.5zM221 313q0 -196 123 -196q71 0 151.5 67t147 165t125.5 220l51 291q-80 29 -174 29q-129 0 -227 -78.5t-147.5 -208.5t-49.5 -289z" />
<glyph unicode="h" horiz-adv-x="1093" d="M72 0l254 1446h133l-131 -744q30 59 65.5 108.5t82 93.5t105.5 68.5t124 24.5q122 0 184.5 -91.5t62.5 -241.5q0 -80 -14 -154l-90 -510h-133l88 500q14 77 14 155q0 232 -147 232q-69 0 -140.5 -55.5t-127 -135t-107.5 -184.5l-90 -512h-133z" />
<glyph unicode="i" horiz-adv-x="460" d="M72 0l172 977h133l-172 -977h-133zM266 1266q0 43 29 73.5t78 30.5q39 0 62.5 -22.5t23.5 -59.5q0 -44 -31 -74t-78 -30q-38 0 -61 23t-23 59z" />
<glyph unicode="j" horiz-adv-x="462" d="M-293 -346q184 103 282 239.5t136 350.5l129 733h133l-129 -733q-42 -242 -157 -407t-334 -279zM276 1266q0 43 29 73.5t78 30.5q39 0 62.5 -22.5t23.5 -59.5q0 -44 -31 -74t-78 -30q-38 0 -61 23t-23 59z" />
<glyph unicode="k" horiz-adv-x="923" d="M72 0l254 1446h133l-164 -934l473 465h176l-508 -494q169 -274 420 -483h-186q-110 99 -211.5 231.5t-167.5 255.5l-86 -487h-133z" />
<glyph unicode="l" horiz-adv-x="460" d="M72 0l254 1446h133l-254 -1446h-133z" />
<glyph unicode="m" horiz-adv-x="1708" d="M72 0l172 977h129l-49 -279q66 132 158.5 215.5t209.5 83.5t177.5 -83t66.5 -222q65 137 162 221t217 84q122 0 187 -91t65 -242q0 -58 -15 -154l-90 -510h-133l88 500q15 88 15 155q0 106 -35.5 169t-112.5 63q-66 0 -136.5 -57.5t-125 -139.5t-98.5 -180l-90 -510h-134 l88 500q15 83 15 155q0 106 -35.5 169t-112.5 63q-177 0 -360 -375l-90 -512h-133z" />
<glyph unicode="n" horiz-adv-x="1093" d="M72 0l172 977h129l-49 -279q153 299 381 299q122 0 184.5 -91.5t62.5 -241.5q0 -80 -14 -154l-90 -510h-133l88 500q14 77 14 155q0 232 -147 232q-52 0 -105 -31t-101 -85t-89.5 -118.5t-79.5 -140.5l-90 -512h-133z" />
<glyph unicode="o" d="M78 373q0 116 34.5 226.5t98 199.5t164 143.5t221.5 54.5q119 0 204 -54.5t125 -143t40 -199.5q0 -110 -35.5 -219t-100 -199t-166 -146t-221.5 -56q-173 0 -268.5 112t-95.5 281zM211 377q0 -131 58.5 -211t183.5 -80q84 0 156.5 45t120 117.5t74.5 162.5t27 181 q0 130 -63 214.5t-184 84.5q-110 0 -197 -74.5t-131.5 -190.5t-44.5 -249z" />
<glyph unicode="p" horiz-adv-x="1054" d="M-2 -422l246 1399h129l-56 -305q177 325 402 325q80 0 139 -47.5t87 -124.5t28 -172q0 -105 -21.5 -202.5t-67.5 -183t-111 -149.5t-157.5 -101t-201.5 -37q-122 0 -207 32l-76 -434h-133zM225 119q87 -33 183 -33q88 0 161 31t122.5 84t83.5 125.5t49.5 153t15.5 167.5 q0 67 -12.5 119t-46.5 88.5t-87 36.5q-67 0 -145.5 -66t-144 -162t-119.5 -210z" />
<glyph unicode="q" horiz-adv-x="1060" d="M82 328q0 133 35 251.5t102 213t176 149.5t246 55q185 0 332 -67l-238 -1352h-133l125 717q-34 -64 -73.5 -117.5t-88.5 -99.5t-107.5 -72t-119.5 -26q-122 0 -189 99t-67 249zM215 328q0 -66 12 -116.5t46.5 -87t88.5 -36.5q55 0 116 40.5t114 105t96.5 133t75.5 137.5 l63 356q-79 31 -184 31t-188 -45.5t-134.5 -123.5t-78.5 -178.5t-27 -215.5z" />
<glyph unicode="r" horiz-adv-x="669" d="M72 0l172 977h131l-53 -305q43 141 125 225t204 84q41 0 62 -6l-21 -115q-10 2 -26 2q-233 0 -373 -364l-88 -498h-133z" />
<glyph unicode="s" horiz-adv-x="811" d="M49 39l31 108q132 -61 252 -61q101 0 162 41t61 123q0 59 -44 107.5t-128 101.5q-51 33 -84.5 58.5t-68 60.5t-51.5 75t-17 86q0 124 86.5 191t228.5 67q160 0 277 -65l-29 -109q-133 68 -250 68q-82 0 -132 -33.5t-50 -105.5q0 -29 8.5 -51.5t33 -47t45.5 -40t69 -48.5 q44 -30 64 -44t60 -48t59.5 -60.5t36.5 -66.5t17 -82q0 -128 -97 -206t-251 -78q-156 0 -289 59z" />
<glyph unicode="t" horiz-adv-x="749" d="M92 868l21 109h182l47 264h133l-47 -264h324l-19 -109h-323l-101 -569q-8 -46 -8 -74q0 -68 30.5 -102.5t102.5 -34.5q92 0 195 43l12 -100q-42 -22 -104.5 -36.5t-120.5 -14.5q-124 0 -186 63t-62 178q0 32 8 78l100 569h-184z" />
<glyph unicode="u" horiz-adv-x="1071" d="M121 301q0 70 14 152l92 524h133l-94 -537q-14 -74 -14 -147q0 -205 139 -205q54 0 110.5 42t107 114t92.5 150.5t79 168.5l74 414h133l-172 -977h-129l57 336q-28 -63 -64 -120t-83.5 -113t-107.5 -89.5t-123 -33.5q-124 0 -184 87.5t-60 233.5z" />
<glyph unicode="v" horiz-adv-x="833" d="M78 977h133q110 -332 186 -854q278 466 316 854h131q-12 -127 -46.5 -251.5t-91.5 -250t-116.5 -232t-145.5 -243.5h-145q-73 550 -221 977z" />
<glyph unicode="w" horiz-adv-x="1423" d="M100 977h125q90 -358 131 -834q102 208 179.5 395.5t158.5 438.5h158l184 -834q206 425 240 834h127q-22 -251 -100.5 -478.5t-221.5 -498.5h-129l-184 866q-63 -203 -147.5 -397.5t-223.5 -468.5h-133q-52 555 -164 977z" />
<glyph unicode="x" horiz-adv-x="890" d="M-20 0l372 473q-128 220 -215 504h135q74 -250 160 -404l297 404h150l-392 -514q69 -127 148 -234.5t188 -228.5h-153q-150 169 -256 362l-283 -362h-151z" />
<glyph unicode="y" horiz-adv-x="868" d="M-88 -348q137 82 238.5 163.5t189.5 182.5q-82 540 -254 979h133q66 -175 125 -411t94 -455q244 409 312 866h129q-31 -249 -135.5 -503t-221.5 -427q-101 -148 -242.5 -273t-308.5 -216z" />
<glyph unicode="z" horiz-adv-x="886" d="M45 104l645 766h-510l19 107h657l-16 -107l-645 -764h542l-16 -106h-664z" />
<glyph unicode="{" horiz-adv-x="790" d="M98 522l15 103h43q93 0 144 55.5t69 157.5l61 346q31 177 110 250t242 73h74l-20 -108h-54q-98 0 -148.5 -49.5t-70.5 -165.5l-59 -336q-23 -127 -79 -189.5t-165 -85.5q152 -47 152 -219q0 -33 -6 -63l-58 -326q-8 -50 -8 -76q0 -69 36.5 -105t123.5 -36h45l-19 -108 h-49q-131 0 -200.5 65t-69.5 182q0 32 8 78l59 336q7 40 7 66q0 70 -34 112.5t-110 42.5h-39z" />
<glyph unicode="|" horiz-adv-x="647" d="M287 -512v2048h114v-2048h-114z" />
<glyph unicode="}" horiz-adv-x="790" d="M-41 -360l21 108h53q98 0 148.5 49.5t70.5 165.5l59 336q22 124 78 189t166 85q-77 22 -114.5 80t-37.5 140q0 28 7 63l57 326q8 50 8 75q0 69 -37 105.5t-123 36.5h-45l19 108h49q133 0 201.5 -64.5t68.5 -182.5q0 -32 -8 -78l-59 -336q-6 -34 -6 -66q0 -155 143 -155 h39l-15 -103h-43q-93 0 -144 -55.5t-69 -157.5l-61 -346q-31 -177 -110 -250t-242 -73h-74z" />
<glyph unicode="~" horiz-adv-x="1132" d="M135 596q46 128 104 180.5t154 52.5q15 0 31 -2t27.5 -4t28.5 -8l25.5 -9t28 -12.5t25.5 -12.5t29.5 -15.5t29.5 -15.5q13 -7 38.5 -21t38.5 -20.5t32.5 -15t37 -12t36.5 -3.5q49 0 76 32.5t73 129.5l97 -49q-52 -124 -107.5 -176t-142.5 -52q-22 0 -43 4t-47 14.5 t-40 16.5t-47 23.5t-42 21.5q-10 5 -38 19.5t-41 20.5t-35 15.5t-39.5 13t-33.5 3.5q-19 0 -33.5 -2.5t-27.5 -12.5t-21 -16t-20 -26t-16.5 -28.5t-19 -38.5t-20.5 -42z" />
<glyph unicode="&#xa1;" horiz-adv-x="557" d="M51 -381l72 412l141 616h76l-78 -616l-72 -412h-139zM244 889q0 45 30 76.5t80 31.5q40 0 64 -25t24 -63q0 -49 -30 -78.5t-80 -29.5q-40 0 -64 25t-24 63z" />
<glyph unicode="&#xa2;" horiz-adv-x="933" d="M133 586q0 146 49.5 269t149 206.5t235.5 103.5l41 244h125l-43 -244q121 -10 213 -63l-33 -105q-128 64 -233 64q-88 0 -160 -40t-117.5 -107.5t-69.5 -151t-24 -174.5q0 -136 63 -211.5t187 -75.5q108 0 236 64l28 -97q-51 -32 -122 -51.5t-140 -21.5l-41 -240h-125 l45 252q-127 30 -195.5 134.5t-68.5 244.5z" />
<glyph unicode="&#xa3;" horiz-adv-x="1101" d="M51 74q236 178 299 495h-211l19 109h213l51 287q39 219 137 321.5t275 102.5q141 0 247 -56l-24 -106q-102 51 -215 51q-123 0 -190 -74t-99 -252l-49 -274h354l-14 -109h-363q-63 -311 -278 -477q100 49 205 49q60 0 153.5 -26.5t143.5 -26.5q56 0 95.5 13t90.5 42 l37 -94q-93 -69 -226 -69q-61 0 -162.5 27.5t-160.5 27.5q-139 0 -285 -60z" />
<glyph unicode="&#xa4;" horiz-adv-x="1273" d="M205 229l172 172q-107 123 -107 281q0 156 107 276l-172 175l82 77l180 -178q101 66 227 66q125 0 226 -66l180 178l82 -77l-174 -175q108 -114 108 -276q0 -163 -108 -281l174 -172l-82 -77l-180 178q-97 -66 -226 -66q-130 0 -227 66l-180 -178zM389 682 q0 -134 84 -227t221 -93q136 0 219.5 93.5t83.5 226.5q0 132 -84 225.5t-219 93.5q-137 0 -221 -93.5t-84 -225.5z" />
<glyph unicode="&#xa5;" horiz-adv-x="1058" d="M100 326l19 96h321l21 119l-35 135h-264l18 98h219l-157 590h137l170 -696l405 696h148l-363 -590h224l-17 -98h-266l-86 -141l-21 -113h328l-18 -96h-328l-55 -326h-133l55 326h-322z" />
<glyph unicode="&#xa6;" horiz-adv-x="647" d="M287 268h114v-780h-114v780zM287 756v780h114v-780h-114z" />
<glyph unicode="&#xa7;" horiz-adv-x="1241" d="M133 -258l21 92q109 -39 229 -39q125 0 194.5 66t69.5 188q0 86 -54 175.5t-159 217.5q-111 135 -167 243t-56 218q0 248 179.5 405.5t467.5 157.5q141 0 229 -32l-16 -91q-88 29 -186 29q-118 0 -194.5 -74t-76.5 -206q0 -36 11 -73t22 -60.5t42 -64.5t43.5 -55.5 t55.5 -62.5q43 -49 57.5 -66t51.5 -62.5t51.5 -69t39.5 -67t35 -76.5t19 -76t9 -87q0 -124 -55 -232t-146.5 -181.5t-211 -115.5t-247.5 -42q-137 0 -258 41zM324 913q0 -96 45.5 -185.5t134.5 -195.5q49 -59 72 -87t64.5 -86t61.5 -98.5t37 -95.5t17 -106q0 -141 -94 -225 q127 68 201.5 178t74.5 246q0 61 -15.5 117t-48 111t-69 101t-92.5 107q-107 116 -157 200t-50 183q0 87 37 160t104 117q-154 -62 -238.5 -166t-84.5 -275z" />
<glyph unicode="&#xa8;" horiz-adv-x="1036" d="M377 1270q0 46 28.5 74t75.5 28q38 0 61 -22t23 -58q0 -45 -29 -74.5t-77 -29.5q-38 0 -60 22.5t-22 59.5zM739 1270q0 46 29 74t76 28q38 0 61 -22t23 -58q0 -45 -29 -74.5t-78 -29.5q-38 0 -60 22.5t-22 59.5z" />
<glyph unicode="&#xa9;" horiz-adv-x="1677" d="M168 682q0 145 51.5 274.5t143 225t225.5 151.5t289 56t288.5 -56t225 -151.5t143 -225t51.5 -274.5q0 -193 -87.5 -354t-250.5 -257t-370 -96q-155 0 -289 56t-225 152t-143 225.5t-52 273.5zM240 682q0 -176 78 -322.5t225 -234.5t334 -88t334 88t224.5 234.5 t77.5 322.5t-77.5 322.5t-224.5 234.5t-334 88t-334 -88t-225 -234.5t-78 -322.5zM526 682q0 178 105 289.5t291 111.5q123 0 202 -36l-16 -89q-85 31 -178 31q-143 0 -218 -80.5t-75 -226.5t75 -226.5t218 -80.5q93 0 178 31l16 -89q-79 -36 -202 -36q-186 0 -291 111.5 t-105 289.5z" />
<glyph unicode="&#xaa;" horiz-adv-x="907" d="M143 420l17 94h610l-16 -94h-611zM205 905q0 92 26.5 176.5t76.5 152.5t131.5 109t183.5 41q125 0 239 -43l-117 -663h-108l47 264q-22 -49 -50.5 -95.5t-66 -89.5t-84.5 -69t-94 -26q-90 0 -137 69t-47 174zM322 911q0 -157 88 -157q53 0 114.5 67t106 149.5t80.5 172.5 l22 131q-47 16 -112 16q-72 0 -130.5 -33t-94.5 -87t-55 -121t-19 -138z" />
<glyph unicode="&#xab;" horiz-adv-x="1128" d="M100 496l406 417l82 -79l-346 -351l221 -348l-98 -63zM543 496l405 417l82 -79l-346 -351l221 -348l-98 -63z" />
<glyph unicode="&#xac;" horiz-adv-x="1234" d="M164 610v105h923v-533h-120v428h-803z" />
<glyph unicode="&#xad;" horiz-adv-x="714" d="M117 475l16 111h481l-18 -111h-479z" />
<glyph unicode="&#xae;" horiz-adv-x="1138" d="M195 946q0 121 55 221.5t157.5 161t233.5 60.5t233.5 -60.5t157.5 -161t55 -221.5q0 -120 -55 -220.5t-158 -161t-233 -60.5t-233 60.5t-158 161t-55 220.5zM254 946q0 -165 108 -278t279 -113t279 113t108 278q0 164 -108 277.5t-279 113.5t-279 -113.5t-108 -277.5z M508 735v449h143q68 0 113 -35t45 -92q0 -49 -28 -82t-74 -47l153 -193h-98l-135 176h-41v-176h-78zM586 975h28q117 0 117 78q0 32 -25.5 49.5t-64.5 17.5h-55v-145z" />
<glyph unicode="&#xaf;" horiz-adv-x="1009" d="M369 1225l18 108h524l-18 -108h-524z" />
<glyph unicode="&#xb0;" horiz-adv-x="808" d="M236 1141q0 103 69.5 175.5t186.5 72.5t186.5 -72.5t69.5 -175.5q0 -104 -69.5 -177t-186.5 -73t-186.5 73t-69.5 177zM334 1141q0 -68 40 -118t118 -50t117.5 49.5t39.5 118.5q0 68 -39.5 117t-117.5 49t-118 -49t-40 -117z" />
<glyph unicode="&#xb1;" horiz-adv-x="1251" d="M184 0v104h924v-104h-924zM184 659v103h402v379h121v-379h401v-103h-401v-380h-121v380h-402z" />
<glyph unicode="&#xb2;" horiz-adv-x="712" d="M152 940q19 15 122 93t138 106q7 6 43 33.5t49 39t43.5 38.5t44 45.5t31.5 45.5t25 54t7 55q0 64 -43 99.5t-110 35.5q-108 0 -195 -49l-24 88q95 57 231 57q115 0 186.5 -60t71.5 -165q0 -41 -10 -79t-31.5 -72t-40 -59t-51.5 -54t-49 -42t-50 -37.5t-38 -27.5 q-86 -63 -185 -131h398l-15 -94h-532z" />
<glyph unicode="&#xb3;" horiz-adv-x="708" d="M182 907l31 88q106 -63 217 -63q79 0 125.5 35.5t46.5 97.5q0 73 -66 114.5t-171 41.5h-39l10 94h51q112 0 193.5 45t81.5 125q0 50 -37 76t-101 26q-108 0 -198 -47l-25 86q98 55 234 55q106 0 174.5 -49.5t68.5 -134.5q0 -86 -63 -146.5t-168 -86.5q77 -22 124.5 -72.5 t47.5 -128.5q0 -101 -80.5 -162t-204.5 -61q-132 0 -252 67z" />
<glyph unicode="&#xb4;" horiz-adv-x="794" d="M352 1135l201 319h162l-244 -319h-119z" />
<glyph unicode="&#xb5;" horiz-adv-x="1095" d="M-2 -422l246 1399h133l-88 -502q-15 -96 -15 -151q0 -53 6 -92t21 -73.5t44.5 -52.5t72.5 -18q54 0 110.5 40.5t106 109.5t90 145t76.5 162l78 432h133l-172 -977h-129l57 328q-172 -348 -383 -348q-85 0 -138.5 56.5t-72.5 139.5q31 -171 -10 -407l-33 -191h-133z" />
<glyph unicode="&#xb6;" horiz-adv-x="1142" d="M174 801q0 262 152.5 412.5t404.5 150.5h385l-149 -856q-44 -257 -144.5 -454t-292.5 -361l-71 76q174 159 261 329.5t130 411.5l133 756h-254l-154 -867q-176 3 -288.5 114t-112.5 288z" />
<glyph unicode="&#xb7;" horiz-adv-x="495" d="M150 504q0 49 30 78.5t80 29.5q40 0 64 -25t24 -63q0 -45 -30 -76.5t-80 -31.5q-40 0 -64 25t-24 63z" />
<glyph unicode="&#xb8;" horiz-adv-x="792" d="M96 -352q31 5 44 7.5t42.5 9t44 13.5t32.5 17.5t26 24t8 30.5q0 26 -27.5 44t-51 23.5t-72.5 13.5q-12 2 -17 3l70 166h100l-43 -109q164 -28 164 -137q0 -161 -303 -196z" />
<glyph unicode="&#xb9;" horiz-adv-x="528" d="M223 1573l277 88h86l-142 -801h-116l121 684l-201 -65z" />
<glyph unicode="&#xba;" horiz-adv-x="901" d="M143 420l17 94h602l-17 -94h-602zM213 946q0 116 43.5 214.5t131 161t202.5 62.5q131 0 207.5 -78t76.5 -202q0 -81 -26 -159t-73 -141.5t-120.5 -102.5t-160.5 -39q-133 0 -207 80t-74 204zM330 950q0 -90 40.5 -143t127.5 -53q76 0 137 52t92 129.5t31 160.5 q0 87 -47 141.5t-131 54.5q-77 0 -135.5 -52t-86.5 -128.5t-28 -161.5z" />
<glyph unicode="&#xbb;" horiz-adv-x="1128" d="M92 152l346 350l-221 348l98 63l265 -424l-406 -417zM535 152l346 350l-222 348l99 63l264 -424l-406 -417z" />
<glyph unicode="&#xbc;" horiz-adv-x="1507" d="M184 1276l277 88h86l-141 -801h-117l121 684l-201 -65zM223 33l957 1356l80 -56l-959 -1358zM784 297l500 504h111l-86 -492h127l-13 -88h-131l-39 -221h-112l39 221h-381zM928 309h268l61 346z" />
<glyph unicode="&#xbd;" horiz-adv-x="1613" d="M184 1276l277 88h86l-141 -801h-117l121 684l-201 -65zM223 33l957 1356l80 -56l-959 -1358zM901 80q19 15 122 93t138 106q8 7 43 34t49 39t44 38t44 45.5t31.5 46t25 53.5t7.5 55q0 64 -43.5 99.5t-110.5 35.5q-107 0 -194 -49l-25 88q95 57 232 57q115 0 186.5 -60 t71.5 -165q0 -36 -9 -70.5t-22 -62t-35 -56.5t-40.5 -48.5t-46 -43t-43.5 -35.5t-42 -31t-33 -24q-99 -73 -184 -131h397l-14 -94h-532z" />
<glyph unicode="&#xbe;" horiz-adv-x="1638" d="M113 610l30 88q106 -63 217 -63q79 0 125.5 35.5t46.5 97.5q0 73 -66 114.5t-171 41.5h-39l10 94h51q112 0 193.5 45t81.5 125q0 50 -36.5 76t-100.5 26q-109 0 -199 -47l-25 86q98 55 234 55q106 0 175 -49.5t69 -134.5q0 -86 -63.5 -146.5t-168.5 -86.5 q77 -22 124.5 -72.5t47.5 -128.5q0 -101 -80 -162t-204 -61q-132 0 -252 67zM354 33l957 1356l80 -56l-959 -1358zM915 297l500 504h111l-86 -492h127l-13 -88h-131l-39 -221h-112l39 221h-381zM1059 309h268l62 346z" />
<glyph unicode="&#xbf;" horiz-adv-x="839" d="M10 -104q0 71 22.5 139t64 126t95 112.5t119 105t132 97t138.5 94.5q13 8 19 12l66 -97q-73 -48 -113.5 -76t-104 -75t-99.5 -79.5t-80.5 -79t-67.5 -86.5t-39.5 -88.5t-16.5 -96.5q0 -92 56.5 -145.5t146.5 -53.5q123 0 256 76l37 -105q-75 -42 -144 -62t-157 -20 q-143 0 -236.5 80t-93.5 222zM518 889q0 45 30 76.5t81 31.5q40 0 64 -25t24 -63q0 -49 -30.5 -78.5t-80.5 -29.5q-40 0 -64 25t-24 63z" />
<glyph unicode="&#xc0;" horiz-adv-x="1308" d="M-27 0l766 1364h129l291 -1364h-137l-68 348h-643l-190 -348h-148zM371 461h563l-148 766zM553 1722h156l135 -227h-111z" />
<glyph unicode="&#xc1;" horiz-adv-x="1308" d="M-27 0l766 1364h129l291 -1364h-137l-68 348h-643l-190 -348h-148zM371 461h563l-148 766zM756 1495l202 227h175l-259 -227h-118z" />
<glyph unicode="&#xc2;" horiz-adv-x="1308" d="M-27 0l766 1364h129l291 -1364h-137l-68 348h-643l-190 -348h-148zM371 461h563l-148 766zM541 1495l231 227h141l162 -227h-127l-110 162l-160 -162h-137z" />
<glyph unicode="&#xc3;" horiz-adv-x="1308" d="M-27 0l766 1364h129l291 -1364h-137l-68 348h-643l-190 -348h-148zM371 461h563l-148 766zM489 1540q48 100 90 136t115 36q69 0 164 -49q93 -49 129 -49q35 0 55.5 21.5t51.5 76.5l82 -43q-38 -86 -82.5 -125t-112.5 -39q-13 0 -27.5 2.5t-24.5 5t-28 10t-24.5 10 t-28.5 13.5t-27 13q-8 4 -26 12.5t-25 12t-20.5 9t-21 7.5t-17.5 4t-19 2q-38 0 -60.5 -22.5t-60.5 -88.5z" />
<glyph unicode="&#xc4;" horiz-adv-x="1308" d="M-27 0l766 1364h129l291 -1364h-137l-68 348h-643l-190 -348h-148zM371 461h563l-148 766zM561 1604q0 43 28.5 70.5t74.5 27.5q36 0 57.5 -20.5t21.5 -55.5q0 -45 -29.5 -73.5t-74.5 -28.5q-36 0 -57 22t-21 58zM934 1604q0 43 28.5 70.5t73.5 27.5q36 0 58 -20.5 t22 -55.5q0 -45 -29.5 -73.5t-74.5 -28.5q-36 0 -57 22t-21 58z" />
<glyph unicode="&#xc5;" horiz-adv-x="1308" d="M-27 0l744 1325q-66 38 -66 119q0 84 54 136t141 52q70 0 111.5 -38.5t41.5 -100.5q0 -58 -33 -105t-89 -69l282 -1319h-137l-68 348h-643l-190 -348h-148zM371 461h563l-148 766zM729 1448q0 -34 20 -55t60 -21q47 0 79 34.5t32 84.5q0 34 -21 54t-59 20 q-50 0 -80.5 -32.5t-30.5 -84.5z" />
<glyph unicode="&#xc6;" horiz-adv-x="1777" d="M-66 0l1022 1364h861l-19 -111h-676l-24 -499h555l-21 -111h-538l-27 -532h535l-19 -111h-645l16 350h-604l-258 -350h-158zM430 459h531l38 780z" />
<glyph unicode="&#xc7;" horiz-adv-x="1228" d="M115 584q0 130 29.5 248.5t91 220t148.5 176.5t209.5 117.5t266.5 42.5q220 0 381 -76l-29 -111q-168 74 -350 74q-192 0 -332 -91t-210 -245.5t-70 -351.5q0 -229 128.5 -364.5t371.5 -135.5q155 0 292 47l17 -106q-142 -54 -328 -54q-37 0 -55 2l-31 -86 q164 -28 164 -137q0 -161 -303 -196l-17 90q31 5 44 7.5t42.5 9t44 13.5t32.5 17.5t26 24t8 30.5q0 13 -5.5 23t-17 18t-22.5 13.5t-30.5 10t-31.5 7t-34 6.5t-31 6l59 158q-213 44 -335.5 203t-122.5 389z" />
<glyph unicode="&#xc8;" horiz-adv-x="1005" d="M82 0l240 1364h718l-18 -113h-586l-88 -497h561l-20 -113h-561l-92 -528h591l-20 -113h-725zM481 1722h156l135 -227h-110z" />
<glyph unicode="&#xc9;" horiz-adv-x="1005" d="M82 0l240 1364h718l-18 -113h-586l-88 -497h561l-20 -113h-561l-92 -528h591l-20 -113h-725zM557 1495l203 227h174l-258 -227h-119z" />
<glyph unicode="&#xca;" horiz-adv-x="1005" d="M82 0l240 1364h718l-18 -113h-586l-88 -497h561l-20 -113h-561l-92 -528h591l-20 -113h-725zM434 1495l232 227h141l162 -227h-127l-111 162l-160 -162h-137z" />
<glyph unicode="&#xcb;" horiz-adv-x="1005" d="M82 0l240 1364h718l-18 -113h-586l-88 -497h561l-20 -113h-561l-92 -528h591l-20 -113h-725zM453 1604q0 43 28.5 70.5t73.5 27.5q36 0 58 -20.5t22 -55.5q0 -45 -30 -73.5t-75 -28.5q-36 0 -56.5 22t-20.5 58zM825 1604q0 43 28.5 70.5t74.5 27.5q36 0 58 -20.5 t22 -55.5q0 -45 -30 -73.5t-75 -28.5q-36 0 -57 22t-21 58z" />
<glyph unicode="&#xcc;" horiz-adv-x="503" d="M92 0l240 1364h135l-240 -1364h-135zM168 1722h156l135 -227h-111z" />
<glyph unicode="&#xcd;" horiz-adv-x="503" d="M92 0l240 1364h135l-240 -1364h-135zM354 1495l203 227h174l-258 -227h-119z" />
<glyph unicode="&#xce;" horiz-adv-x="503" d="M92 0l240 1364h135l-240 -1364h-135zM150 1495l231 227h141l162 -227h-127l-111 162l-159 -162h-137z" />
<glyph unicode="&#xcf;" horiz-adv-x="503" d="M92 0l240 1364h135l-240 -1364h-135zM154 1604q0 43 28.5 70.5t73.5 27.5q36 0 58 -20.5t22 -55.5q0 -45 -30 -73.5t-75 -28.5q-36 0 -56.5 22t-20.5 58zM526 1604q0 43 28.5 70.5t74.5 27.5q36 0 58 -20.5t22 -55.5q0 -45 -30 -73.5t-75 -28.5q-36 0 -57 22t-21 58z" />
<glyph unicode="&#xd0;" horiz-adv-x="1454" d="M133 629l19 106h153l111 629h327q295 0 474.5 -156.5t179.5 -427.5q0 -169 -60 -313t-169.5 -247t-270.5 -161.5t-356 -58.5h-365l111 629h-154zM330 111h219q173 2 310 53.5t224.5 141t133 209t45.5 261.5q0 225 -146 351t-387 126h-199l-92 -518h389l-18 -106h-389z " />
<glyph unicode="&#xd1;" horiz-adv-x="1406" d="M82 0l240 1364h129l596 -1161l204 1161h129l-239 -1364h-131l-594 1161l-205 -1161h-129zM522 1540q48 100 90 136t115 36q69 0 164 -49q93 -49 129 -49q35 0 55 21t51 77l82 -43q-38 -86 -82 -125t-112 -39q-13 0 -27.5 2.5t-24.5 5t-28 10t-24.5 10t-28.5 13.5t-27 13 q-8 4 -26 12.5t-25 12t-20.5 9t-21 7.5t-17.5 4t-19 2q-38 0 -60.5 -22.5t-60.5 -88.5z" />
<glyph unicode="&#xd2;" horiz-adv-x="1482" d="M119 555q0 171 51 323t144 265.5t232.5 179.5t305.5 66q172 0 301.5 -76.5t196.5 -208.5t67 -299q0 -127 -32.5 -249t-96.5 -226.5t-151.5 -184t-204 -125t-246.5 -45.5q-134 0 -243 47.5t-179 128t-107.5 184.5t-37.5 220zM254 561q0 -221 119 -348t323 -127 q128 0 239.5 59.5t186.5 158t117.5 227.5t42.5 268q0 212 -121 345.5t-319 133.5q-111 0 -207 -40.5t-165 -109.5t-118.5 -160.5t-73.5 -195t-24 -211.5zM614 1722h156l135 -227h-110z" />
<glyph unicode="&#xd3;" horiz-adv-x="1482" d="M119 555q0 171 51 323t144 265.5t232.5 179.5t305.5 66q172 0 301.5 -76.5t196.5 -208.5t67 -299q0 -127 -32.5 -249t-96.5 -226.5t-151.5 -184t-204 -125t-246.5 -45.5q-134 0 -243 47.5t-179 128t-107.5 184.5t-37.5 220zM254 561q0 -221 119 -348t323 -127 q128 0 239.5 59.5t186.5 158t117.5 227.5t42.5 268q0 212 -121 345.5t-319 133.5q-111 0 -207 -40.5t-165 -109.5t-118.5 -160.5t-73.5 -195t-24 -211.5zM803 1495l203 227h174l-258 -227h-119z" />
<glyph unicode="&#xd4;" horiz-adv-x="1482" d="M119 555q0 171 51 323t144 265.5t232.5 179.5t305.5 66q172 0 301.5 -76.5t196.5 -208.5t67 -299q0 -127 -32.5 -249t-96.5 -226.5t-151.5 -184t-204 -125t-246.5 -45.5q-134 0 -243 47.5t-179 128t-107.5 184.5t-37.5 220zM254 561q0 -221 119 -348t323 -127 q128 0 239.5 59.5t186.5 158t117.5 227.5t42.5 268q0 212 -121 345.5t-319 133.5q-111 0 -207 -40.5t-165 -109.5t-118.5 -160.5t-73.5 -195t-24 -211.5zM633 1495l231 227h142l161 -227h-127l-110 162l-160 -162h-137z" />
<glyph unicode="&#xd5;" horiz-adv-x="1482" d="M119 555q0 171 51 323t144 265.5t232.5 179.5t305.5 66q172 0 301.5 -76.5t196.5 -208.5t67 -299q0 -127 -32.5 -249t-96.5 -226.5t-151.5 -184t-204 -125t-246.5 -45.5q-134 0 -243 47.5t-179 128t-107.5 184.5t-37.5 220zM254 561q0 -221 119 -348t323 -127 q128 0 239.5 59.5t186.5 158t117.5 227.5t42.5 268q0 212 -121 345.5t-319 133.5q-111 0 -207 -40.5t-165 -109.5t-118.5 -160.5t-73.5 -195t-24 -211.5zM553 1540q48 100 90 136t115 36q69 0 164 -49q93 -49 129 -49q35 0 55 21t51 77l82 -43q-38 -86 -82.5 -125 t-112.5 -39q-13 0 -27.5 2.5t-25 5t-27 9.5t-24.5 10.5t-28 13.5t-27 13q-8 4 -26 12.5t-25 12t-20.5 9t-21 7.5t-17.5 4t-19 2q-38 0 -60.5 -22.5t-60.5 -88.5z" />
<glyph unicode="&#xd6;" horiz-adv-x="1482" d="M119 555q0 171 51 323t144 265.5t232.5 179.5t305.5 66q172 0 301.5 -76.5t196.5 -208.5t67 -299q0 -127 -32.5 -249t-96.5 -226.5t-151.5 -184t-204 -125t-246.5 -45.5q-134 0 -243 47.5t-179 128t-107.5 184.5t-37.5 220zM254 561q0 -221 119 -348t323 -127 q128 0 239.5 59.5t186.5 158t117.5 227.5t42.5 268q0 212 -121 345.5t-319 133.5q-111 0 -207 -40.5t-165 -109.5t-118.5 -160.5t-73.5 -195t-24 -211.5zM625 1604q0 43 28.5 70.5t73.5 27.5q36 0 58 -20.5t22 -55.5q0 -45 -30 -73.5t-75 -28.5q-36 0 -56.5 22t-20.5 58z M997 1604q0 43 28.5 70.5t74.5 27.5q36 0 58 -20.5t22 -55.5q0 -45 -30 -73.5t-75 -28.5q-36 0 -57 22t-21 58z" />
<glyph unicode="&#xd7;" horiz-adv-x="1210" d="M236 330l331 332l-331 331l77 78l332 -334l332 334l80 -78l-334 -331l334 -332l-80 -80l-332 334l-332 -334z" />
<glyph unicode="&#xd8;" horiz-adv-x="1492" d="M125 555q0 171 51 323t144 265.5t232.5 179.5t305.5 66q201 0 348 -109l168 215l74 -57l-172 -219q147 -163 147 -414q0 -127 -32.5 -249t-96.5 -226.5t-151.5 -184t-204 -125t-246.5 -45.5q-186 0 -323 91l-154 -197l-74 57l154 197q-84 81 -127 192.5t-43 239.5z M260 561q0 -216 111 -342l757 963q-116 96 -280 96q-111 0 -207 -40.5t-165 -109.5t-118.5 -160.5t-73.5 -195t-24 -211.5zM442 158q107 -72 260 -72q128 0 239.5 59.5t186.5 158t117.5 227.5t42.5 268q0 184 -96 313z" />
<glyph unicode="&#xd9;" horiz-adv-x="1359" d="M158 412q0 53 8 100l151 852h136l-152 -860q-8 -44 -8 -96q0 -146 83.5 -234t256.5 -88q171 0 277 98.5t137 278.5l157 901h135l-155 -891q-18 -104 -60 -191.5t-109 -157.5t-167.5 -109.5t-224.5 -39.5q-212 0 -338.5 122.5t-126.5 314.5zM637 1722h156l135 -227h-111z " />
<glyph unicode="&#xda;" horiz-adv-x="1359" d="M158 412q0 53 8 100l151 852h136l-152 -860q-8 -44 -8 -96q0 -146 83.5 -234t256.5 -88q171 0 277 98.5t137 278.5l157 901h135l-155 -891q-18 -104 -60 -191.5t-109 -157.5t-167.5 -109.5t-224.5 -39.5q-212 0 -338.5 122.5t-126.5 314.5zM705 1495l202 227h174 l-258 -227h-118z" />
<glyph unicode="&#xdb;" horiz-adv-x="1359" d="M158 412q0 53 8 100l151 852h136l-152 -860q-8 -44 -8 -96q0 -146 83.5 -234t256.5 -88q171 0 277 98.5t137 278.5l157 901h135l-155 -891q-18 -104 -60 -191.5t-109 -157.5t-167.5 -109.5t-224.5 -39.5q-212 0 -338.5 122.5t-126.5 314.5zM578 1495l231 227h141 l162 -227h-127l-111 162l-159 -162h-137z" />
<glyph unicode="&#xdc;" horiz-adv-x="1359" d="M158 412q0 53 8 100l151 852h136l-152 -860q-8 -44 -8 -96q0 -146 83.5 -234t256.5 -88q171 0 277 98.5t137 278.5l157 901h135l-155 -891q-18 -104 -60 -191.5t-109 -157.5t-167.5 -109.5t-224.5 -39.5q-212 0 -338.5 122.5t-126.5 314.5zM592 1604q0 43 28.5 70.5 t73.5 27.5q36 0 58 -20.5t22 -55.5q0 -45 -29.5 -73.5t-74.5 -28.5q-36 0 -57 22t-21 58zM965 1604q0 43 28.5 70.5t73.5 27.5q36 0 58 -20.5t22 -55.5q0 -45 -30 -73.5t-75 -28.5q-36 0 -56.5 22t-20.5 58z" />
<glyph unicode="&#xdd;" horiz-adv-x="1046" d="M164 1364h139l250 -696l475 696h158l-588 -829l-94 -535h-135l96 553zM565 1495l203 227h174l-258 -227h-119z" />
<glyph unicode="&#xde;" horiz-adv-x="1026" d="M82 0l240 1364h135l-49 -279h184q178 0 290.5 -96.5t112.5 -253.5q0 -96 -35.5 -174t-95.5 -129.5t-142 -86.5t-171.5 -50.5t-188.5 -15.5h-96l-49 -279h-135zM285 389h90q101 0 185.5 18.5t153 57t107.5 106t39 158.5q0 114 -78 180t-200 66h-193z" />
<glyph unicode="&#xdf;" horiz-adv-x="1148" d="M-395 -414l22 105q73 -25 144 -25q49 0 89 12.5t69.5 33t54 55.5t41 70t31 87t24 97t20.5 108l152 858q84 483 498 483q133 0 220 -68.5t87 -180.5q0 -34 -9.5 -67.5t-19.5 -56t-33 -52.5t-33.5 -41.5t-39 -39.5t-31.5 -32q-8 -9 -38 -38.5t-43 -45t-33 -42t-28 -52 t-8 -52.5q0 -26 7.5 -47.5t28 -45t33.5 -36t46 -41.5q37 -31 59 -52t55 -59.5t49.5 -81.5t16.5 -89q0 -128 -95.5 -199t-240.5 -71q-64 0 -137 16.5t-129 42.5l29 102q112 -53 242 -53q89 0 144.5 39.5t55.5 118.5q0 22 -7 44t-14 36t-26 35.5t-26.5 29t-34.5 31t-31 27.5 q-39 35 -59.5 55.5t-46 53.5t-37 67.5t-11.5 74.5q0 32 9.5 64t19 53.5t35.5 53.5t36 43.5t45 46.5l40 40q29 29 43.5 44.5t38.5 46.5t35.5 60.5t11.5 59.5q0 70 -55 109t-140 39q-133 0 -223 -93.5t-123 -279.5l-152 -858q-19 -109 -40.5 -188.5t-57.5 -155.5t-82.5 -123 t-115.5 -75.5t-158 -28.5q-95 0 -174 28z" />
<glyph unicode="&#xe0;" d="M82 319q0 104 22.5 202.5t68.5 185t111.5 151t158 102t200.5 37.5q164 0 309 -57l-166 -940h-127l66 381q-33 -71 -70.5 -134t-89 -127t-114 -102t-127.5 -38q-82 0 -138.5 49.5t-80 123.5t-23.5 166zM215 324q0 -238 123 -238q48 0 100 39.5t97.5 100t91.5 143.5 t80.5 159.5t66.5 157.5l33 184q-74 21 -164 21q-100 0 -182 -46t-135 -124.5t-82 -180.5t-29 -216zM481 1454h144l94 -319h-109z" />
<glyph unicode="&#xe1;" d="M82 319q0 104 22.5 202.5t68.5 185t111.5 151t158 102t200.5 37.5q164 0 309 -57l-166 -940h-127l66 381q-33 -71 -70.5 -134t-89 -127t-114 -102t-127.5 -38q-82 0 -138.5 49.5t-80 123.5t-23.5 166zM215 324q0 -238 123 -238q48 0 100 39.5t97.5 100t91.5 143.5 t80.5 159.5t66.5 157.5l33 184q-74 21 -164 21q-100 0 -182 -46t-135 -124.5t-82 -180.5t-29 -216zM567 1135l201 319h162l-244 -319h-119z" />
<glyph unicode="&#xe2;" d="M82 319q0 104 22.5 202.5t68.5 185t111.5 151t158 102t200.5 37.5q164 0 309 -57l-166 -940h-127l66 381q-33 -71 -70.5 -134t-89 -127t-114 -102t-127.5 -38q-82 0 -138.5 49.5t-80 123.5t-23.5 166zM215 324q0 -238 123 -238q48 0 100 39.5t97.5 100t91.5 143.5 t80.5 159.5t66.5 157.5l33 184q-74 21 -164 21q-100 0 -182 -46t-135 -124.5t-82 -180.5t-29 -216zM387 1135l266 319h135l164 -319h-127l-110 239l-193 -239h-135z" />
<glyph unicode="&#xe3;" d="M82 319q0 104 22.5 202.5t68.5 185t111.5 151t158 102t200.5 37.5q164 0 309 -57l-166 -940h-127l66 381q-33 -71 -70.5 -134t-89 -127t-114 -102t-127.5 -38q-82 0 -138.5 49.5t-80 123.5t-23.5 166zM215 324q0 -238 123 -238q48 0 100 39.5t97.5 100t91.5 143.5 t80.5 159.5t66.5 157.5l33 184q-74 21 -164 21q-100 0 -182 -46t-135 -124.5t-82 -180.5t-29 -216zM379 1212q52 101 93.5 137.5t115.5 36.5q36 0 67 -12t78 -39q9 -5 25.5 -15t24.5 -14.5t19.5 -10t20.5 -7.5t19 -2q35 0 55.5 21.5t54.5 81.5l80 -46q-45 -88 -88 -126.5 t-106 -38.5q-50 0 -146 55q-4 2 -13.5 7.5t-13 7.5t-11.5 6.5t-11 6l-10 5t-10.5 4.5t-9.5 3t-10 3t-9 1.5t-10 0.5q-37 0 -61.5 -24t-63.5 -89z" />
<glyph unicode="&#xe4;" d="M82 319q0 104 22.5 202.5t68.5 185t111.5 151t158 102t200.5 37.5q164 0 309 -57l-166 -940h-127l66 381q-33 -71 -70.5 -134t-89 -127t-114 -102t-127.5 -38q-82 0 -138.5 49.5t-80 123.5t-23.5 166zM215 324q0 -238 123 -238q48 0 100 39.5t97.5 100t91.5 143.5 t80.5 159.5t66.5 157.5l33 184q-74 21 -164 21q-100 0 -182 -46t-135 -124.5t-82 -180.5t-29 -216zM426 1270q0 46 28.5 74t75.5 28q38 0 61 -22t23 -58q0 -45 -29 -74.5t-77 -29.5q-38 0 -60 22.5t-22 59.5zM788 1270q0 46 29 74t76 28q38 0 61 -22t23 -58q0 -45 -29 -74.5 t-78 -29.5q-38 0 -60 22.5t-22 59.5z" />
<glyph unicode="&#xe5;" d="M82 319q0 104 22.5 202.5t68.5 185t111.5 151t158 102t200.5 37.5q164 0 309 -57l-166 -940h-127l66 381q-33 -71 -70.5 -134t-89 -127t-114 -102t-127.5 -38q-82 0 -138.5 49.5t-80 123.5t-23.5 166zM215 324q0 -238 123 -238q48 0 100 39.5t97.5 100t91.5 143.5 t80.5 159.5t66.5 157.5l33 184q-74 21 -164 21q-100 0 -182 -46t-135 -124.5t-82 -180.5t-29 -216zM532 1274q0 84 54 136t141 52q70 0 112 -38.5t42 -100.5q0 -78 -57 -133t-142 -55q-69 0 -109.5 39.5t-40.5 99.5zM610 1278q0 -34 20 -55t60 -21q47 0 79 34.5t32 84.5 q0 34 -21 54t-59 20q-50 0 -80.5 -32.5t-30.5 -84.5z" />
<glyph unicode="&#xe6;" horiz-adv-x="1464" d="M53 225q0 284 357 307q154 10 260 13q16 78 16 123q0 114 -61.5 167.5t-169.5 53.5q-136 0 -250 -62l-27 103q117 67 295 67q118 0 201 -57t106 -164q65 107 164.5 164t224.5 57q111 0 186 -60t75 -161q0 -59 -21.5 -107t-56 -81t-87 -57.5t-106 -39.5t-122.5 -24 t-126.5 -13t-126.5 -5q-8 -39 -8 -82q0 -77 23 -139t79 -104t140 -42q139 0 258 78l31 -99q-59 -37 -139 -59t-158 -22q-105 0 -181.5 44.5t-117.5 122.5q-194 -167 -394 -167q-119 0 -191.5 72t-72.5 173zM182 231q0 -68 42 -108.5t118 -40.5q162 0 328 156 q-26 108 -15 206q-135 0 -227 -10q-118 -13 -182 -60.5t-64 -142.5zM801 547q215 10 315 38q187 51 187 179q0 57 -39 94t-105 37q-130 0 -230.5 -101t-127.5 -247z" />
<glyph unicode="&#xe7;" horiz-adv-x="862" d="M78 383q0 122 35 232t99 195.5t163.5 136t220.5 50.5q154 0 262 -63l-29 -109q-121 62 -233 62q-119 0 -208 -69t-133 -183t-44 -256q0 -137 62.5 -214t191.5 -77q116 0 233 57l27 -100q-120 -65 -274 -65h-9l-41 -89q164 -28 164 -137q0 -161 -303 -196l-16 90 q31 5 44 7.5t42 9t43.5 13.5t32.5 17.5t26 24t8 30.5q0 10 -3.5 18.5t-11 15.5t-14.5 12.5t-20.5 10l-22.5 7.5t-25.5 6.5t-25 5t-26 4.5t-23.5 4l72 158q-89 22 -149.5 81t-87.5 137.5t-27 172.5z" />
<glyph unicode="&#xe8;" horiz-adv-x="901" d="M80 360q0 121 36 234.5t101 203.5t166 144.5t221 54.5q110 0 184 -58.5t74 -160.5q0 -66 -30.5 -119.5t-85 -89.5t-118 -62t-141 -41t-141 -23t-131.5 -11q-6 -43 -6 -82q0 -121 56 -191.5t175 -70.5q131 0 273 76l26 -101q-143 -83 -307 -83q-172 0 -262 105.5 t-90 274.5zM233 537q66 3 127.5 10t132 24t121.5 41.5t85 66t34 93.5q0 54 -39 88.5t-106 34.5q-131 0 -228.5 -108t-126.5 -250zM391 1454h144l94 -319h-109z" />
<glyph unicode="&#xe9;" horiz-adv-x="901" d="M80 360q0 121 36 234.5t101 203.5t166 144.5t221 54.5q110 0 184 -58.5t74 -160.5q0 -66 -30.5 -119.5t-85 -89.5t-118 -62t-141 -41t-141 -23t-131.5 -11q-6 -43 -6 -82q0 -121 56 -191.5t175 -70.5q131 0 273 76l26 -101q-143 -83 -307 -83q-172 0 -262 105.5 t-90 274.5zM233 537q66 3 127.5 10t132 24t121.5 41.5t85 66t34 93.5q0 54 -39 88.5t-106 34.5q-131 0 -228.5 -108t-126.5 -250zM530 1135l201 319h162l-244 -319h-119z" />
<glyph unicode="&#xea;" horiz-adv-x="901" d="M80 360q0 121 36 234.5t101 203.5t166 144.5t221 54.5q110 0 184 -58.5t74 -160.5q0 -66 -30.5 -119.5t-85 -89.5t-118 -62t-141 -41t-141 -23t-131.5 -11q-6 -43 -6 -82q0 -121 56 -191.5t175 -70.5q131 0 273 76l26 -101q-143 -83 -307 -83q-172 0 -262 105.5 t-90 274.5zM233 537q66 3 127.5 10t132 24t121.5 41.5t85 66t34 93.5q0 54 -39 88.5t-106 34.5q-131 0 -228.5 -108t-126.5 -250zM317 1135l267 319h135l164 -319h-127l-111 239l-192 -239h-136z" />
<glyph unicode="&#xeb;" horiz-adv-x="901" d="M80 360q0 121 36 234.5t101 203.5t166 144.5t221 54.5q110 0 184 -58.5t74 -160.5q0 -66 -30.5 -119.5t-85 -89.5t-118 -62t-141 -41t-141 -23t-131.5 -11q-6 -43 -6 -82q0 -121 56 -191.5t175 -70.5q131 0 273 76l26 -101q-143 -83 -307 -83q-172 0 -262 105.5 t-90 274.5zM233 537q66 3 127.5 10t132 24t121.5 41.5t85 66t34 93.5q0 54 -39 88.5t-106 34.5q-131 0 -228.5 -108t-126.5 -250zM360 1270q0 46 29 74t76 28q38 0 61 -22t23 -58q0 -45 -29 -74.5t-78 -29.5q-38 0 -60 22.5t-22 59.5zM723 1270q0 46 28.5 74t75.5 28 q38 0 61 -22t23 -58q0 -45 -29 -74.5t-77 -29.5q-38 0 -60 22.5t-22 59.5z" />
<glyph unicode="&#xec;" horiz-adv-x="460" d="M72 0l172 977h133l-172 -977h-133zM131 1454h143l95 -319h-109z" />
<glyph unicode="&#xed;" horiz-adv-x="460" d="M72 0l172 977h133l-172 -977h-133zM272 1135l201 319h162l-244 -319h-119z" />
<glyph unicode="&#xee;" horiz-adv-x="460" d="M45 1135l266 319h135l164 -319h-127l-110 239l-193 -239h-135zM72 0l172 977h133l-172 -977h-133z" />
<glyph unicode="&#xef;" horiz-adv-x="460" d="M72 0l172 977h133l-172 -977h-133zM78 1270q0 46 28.5 74t75.5 28q38 0 61 -22t23 -58q0 -45 -29 -74.5t-77 -29.5q-38 0 -60 22.5t-22 59.5zM440 1270q0 46 29 74t76 28q38 0 61 -22t23 -58q0 -45 -29 -74.5t-78 -29.5q-38 0 -60 22.5t-22 59.5z" />
<glyph unicode="&#xf0;" horiz-adv-x="1071" d="M78 379q0 112 31 211.5t89.5 176.5t152.5 122t212 45q193 0 332 -119q-10 133 -56.5 221t-125.5 154l-221 -148l-46 72l195 125q-122 83 -297 119l29 108q217 -40 366 -149l211 139l45 -67l-188 -127q99 -85 154 -208t55 -270q0 -49 -15 -145q-26 -145 -74.5 -264 t-118.5 -208t-166 -138t-210 -49q-166 0 -260 114.5t-94 284.5zM207 371q0 -131 59 -209t178 -78q92 0 168 48t126 128t82 170t48 188l15 91q-138 118 -305 118q-122 0 -207.5 -62t-124.5 -163t-39 -231z" />
<glyph unicode="&#xf1;" horiz-adv-x="1093" d="M72 0l172 977h129l-49 -279q153 299 381 299q122 0 184.5 -91.5t62.5 -241.5q0 -80 -14 -154l-90 -510h-133l88 500q14 77 14 155q0 232 -147 232q-52 0 -105 -31t-101 -85t-89.5 -118.5t-79.5 -140.5l-90 -512h-133zM334 1212q52 101 93.5 137.5t115.5 36.5q36 0 67 -12 t78 -39q9 -5 25.5 -15t24.5 -14.5t19.5 -10t20.5 -7.5t19 -2q35 0 55.5 21.5t54.5 81.5l80 -46q-45 -88 -88 -126.5t-106 -38.5q-50 0 -146 55q-4 2 -13.5 7.5t-13 7.5t-11.5 6.5t-11 6l-10 5t-10.5 4.5t-9.5 3t-10 3t-9 1.5t-10 0.5q-37 0 -61.5 -24t-63.5 -89z" />
<glyph unicode="&#xf2;" d="M78 373q0 116 34.5 226.5t98 199.5t164 143.5t221.5 54.5q119 0 204 -54.5t125 -143t40 -199.5q0 -110 -35.5 -219t-100 -199t-166 -146t-221.5 -56q-173 0 -268.5 112t-95.5 281zM211 377q0 -131 58.5 -211t183.5 -80q84 0 156.5 45t120 117.5t74.5 162.5t27 181 q0 130 -63 214.5t-184 84.5q-110 0 -197 -74.5t-131.5 -190.5t-44.5 -249zM410 1454h143l94 -319h-108z" />
<glyph unicode="&#xf3;" d="M78 373q0 116 34.5 226.5t98 199.5t164 143.5t221.5 54.5q119 0 204 -54.5t125 -143t40 -199.5q0 -110 -35.5 -219t-100 -199t-166 -146t-221.5 -56q-173 0 -268.5 112t-95.5 281zM211 377q0 -131 58.5 -211t183.5 -80q84 0 156.5 45t120 117.5t74.5 162.5t27 181 q0 130 -63 214.5t-184 84.5q-110 0 -197 -74.5t-131.5 -190.5t-44.5 -249zM553 1135l201 319h161l-243 -319h-119z" />
<glyph unicode="&#xf4;" d="M78 373q0 116 34.5 226.5t98 199.5t164 143.5t221.5 54.5q119 0 204 -54.5t125 -143t40 -199.5q0 -110 -35.5 -219t-100 -199t-166 -146t-221.5 -56q-173 0 -268.5 112t-95.5 281zM211 377q0 -131 58.5 -211t183.5 -80q84 0 156.5 45t120 117.5t74.5 162.5t27 181 q0 130 -63 214.5t-184 84.5q-110 0 -197 -74.5t-131.5 -190.5t-44.5 -249zM352 1135l266 319h136l164 -319h-127l-111 239l-193 -239h-135z" />
<glyph unicode="&#xf5;" d="M78 373q0 116 34.5 226.5t98 199.5t164 143.5t221.5 54.5q119 0 204 -54.5t125 -143t40 -199.5q0 -110 -35.5 -219t-100 -199t-166 -146t-221.5 -56q-173 0 -268.5 112t-95.5 281zM211 377q0 -131 58.5 -211t183.5 -80q84 0 156.5 45t120 117.5t74.5 162.5t27 181 q0 130 -63 214.5t-184 84.5q-110 0 -197 -74.5t-131.5 -190.5t-44.5 -249zM319 1212q52 101 93.5 137.5t115.5 36.5q36 0 68 -12.5t78 -38.5q10 -6 25.5 -15.5t23.5 -14t19.5 -10t20.5 -7.5t19 -2q35 0 56 22t55 81l80 -46q-45 -88 -88.5 -126.5t-106.5 -38.5q-49 0 -145 55 q-68 39 -92 43q-9 2 -17 2q-37 0 -61.5 -24t-63.5 -89z" />
<glyph unicode="&#xf6;" d="M78 373q0 116 34.5 226.5t98 199.5t164 143.5t221.5 54.5q119 0 204 -54.5t125 -143t40 -199.5q0 -110 -35.5 -219t-100 -199t-166 -146t-221.5 -56q-173 0 -268.5 112t-95.5 281zM211 377q0 -131 58.5 -211t183.5 -80q84 0 156.5 45t120 117.5t74.5 162.5t27 181 q0 130 -63 214.5t-184 84.5q-110 0 -197 -74.5t-131.5 -190.5t-44.5 -249zM387 1270q0 46 29 74t76 28q38 0 60.5 -22t22.5 -58q0 -45 -29 -74.5t-77 -29.5q-38 0 -60 22.5t-22 59.5zM750 1270q0 46 28.5 74t75.5 28q38 0 61 -22t23 -58q0 -45 -29 -74.5t-78 -29.5 q-38 0 -59.5 22.5t-21.5 59.5z" />
<glyph unicode="&#xf7;" horiz-adv-x="1251" d="M190 610v105h924v-105h-924zM551 293q0 42 28 71t72 29q45 0 73 -29t28 -71t-28 -71t-73 -29q-44 0 -72 29t-28 71zM551 1032q0 42 28.5 71.5t71.5 29.5q45 0 73 -29.5t28 -71.5t-28 -71t-73 -29q-44 0 -72 29t-28 71z" />
<glyph unicode="&#xf8;" horiz-adv-x="1054" d="M37 -76l139 176q-90 107 -90 273q0 117 34 227.5t97.5 199.5t164 143t222.5 54q128 0 219 -69l138 176l65 -51l-143 -183q90 -110 90 -270q0 -87 -22 -174.5t-66 -167.5t-105 -142t-146 -99t-181 -37q-125 0 -215 65l-136 -172zM219 377q0 -104 37 -174l494 631 q-67 57 -158 57q-109 0 -196 -74.5t-132 -191t-45 -248.5zM307 135q62 -49 156 -49q86 0 159.5 46.5t119.5 120.5t72 162.5t26 176.5q0 101 -39 172z" />
<glyph unicode="&#xf9;" horiz-adv-x="1071" d="M121 301q0 70 14 152l92 524h133l-94 -537q-14 -74 -14 -147q0 -205 139 -205q54 0 110.5 42t107 114t92.5 150.5t79 168.5l74 414h133l-172 -977h-129l57 336q-28 -63 -64 -120t-83.5 -113t-107.5 -89.5t-123 -33.5q-124 0 -184 87.5t-60 233.5zM463 1454h143l94 -319 h-108z" />
<glyph unicode="&#xfa;" horiz-adv-x="1071" d="M121 301q0 70 14 152l92 524h133l-94 -537q-14 -74 -14 -147q0 -205 139 -205q54 0 110.5 42t107 114t92.5 150.5t79 168.5l74 414h133l-172 -977h-129l57 336q-28 -63 -64 -120t-83.5 -113t-107.5 -89.5t-123 -33.5q-124 0 -184 87.5t-60 233.5zM535 1135l200 319h162 l-244 -319h-118z" />
<glyph unicode="&#xfb;" horiz-adv-x="1071" d="M121 301q0 70 14 152l92 524h133l-94 -537q-14 -74 -14 -147q0 -205 139 -205q54 0 110.5 42t107 114t92.5 150.5t79 168.5l74 414h133l-172 -977h-129l57 336q-28 -63 -64 -120t-83.5 -113t-107.5 -89.5t-123 -33.5q-124 0 -184 87.5t-60 233.5zM365 1135l266 319h135 l164 -319h-127l-111 239l-192 -239h-135z" />
<glyph unicode="&#xfc;" horiz-adv-x="1071" d="M121 301q0 70 14 152l92 524h133l-94 -537q-14 -74 -14 -147q0 -205 139 -205q54 0 110.5 42t107 114t92.5 150.5t79 168.5l74 414h133l-172 -977h-129l57 336q-28 -63 -64 -120t-83.5 -113t-107.5 -89.5t-123 -33.5q-124 0 -184 87.5t-60 233.5zM399 1270q0 46 29 74 t76 28q38 0 61 -22t23 -58q0 -45 -29 -74.5t-78 -29.5q-38 0 -60 22.5t-22 59.5zM762 1270q0 46 28.5 74t75.5 28q38 0 61 -22t23 -58q0 -45 -29 -74.5t-77 -29.5q-38 0 -60 22.5t-22 59.5z" />
<glyph unicode="&#xfd;" horiz-adv-x="868" d="M-88 -348q137 82 238.5 163.5t189.5 182.5q-82 540 -254 979h133q66 -175 125 -411t94 -455q244 409 312 866h129q-31 -249 -135.5 -503t-221.5 -427q-101 -148 -242.5 -273t-308.5 -216zM377 1135l201 319h161l-243 -319h-119z" />
<glyph unicode="&#xfe;" horiz-adv-x="1050" d="M-2 -422l328 1868h133l-133 -764q80 143 175.5 229t217.5 86q80 0 139 -47.5t87 -124.5t28 -172q0 -105 -21.5 -202.5t-67.5 -183t-111 -149.5t-157.5 -101t-201.5 -37q-122 0 -207 32l-76 -434h-133zM225 119q87 -33 183 -33q88 0 161 31t122.5 84t83.5 125.5t49.5 153 t15.5 167.5q0 67 -12.5 119t-46.5 88.5t-87 36.5q-67 0 -145.5 -66t-144 -162t-119.5 -210z" />
<glyph unicode="&#xff;" horiz-adv-x="868" d="M-88 -348q137 82 238.5 163.5t189.5 182.5q-82 540 -254 979h133q66 -175 125 -411t94 -455q244 409 312 866h129q-31 -249 -135.5 -503t-221.5 -427q-101 -148 -242.5 -273t-308.5 -216zM248 1270q0 46 28.5 74t75.5 28q38 0 61 -22t23 -58q0 -45 -29 -74.5t-77 -29.5 q-38 0 -60 22.5t-22 59.5zM610 1270q0 46 29 74t76 28q38 0 61 -22t23 -58q0 -45 -29 -74.5t-78 -29.5q-38 0 -60 22.5t-22 59.5z" />
<glyph unicode="&#x152;" horiz-adv-x="1918" d="M117 569q0 245 90 429t267.5 287.5t422.5 103.5q161 0 340 -25h719l-21 -113h-583l-88 -497h559l-19 -113h-559l-94 -530h590l-19 -111h-727q-119 -25 -262 -25q-147 0 -265.5 46.5t-194.5 127.5t-116 188.5t-40 231.5zM252 575q0 -231 131.5 -360t382.5 -129 q148 0 248 27l203 1140q-175 25 -312 25q-206 0 -354.5 -88.5t-223.5 -246t-75 -368.5z" />
<glyph unicode="&#x153;" horiz-adv-x="1630" d="M78 379q0 119 35 229t98.5 197t163 139.5t219.5 52.5q123 0 210 -66t120 -181q148 247 409 247q114 0 186 -60t72 -159q0 -66 -30 -119.5t-83 -89.5t-116 -62t-140 -40.5t-142.5 -22t-135.5 -10.5q-6 -37 -6 -86q0 -119 56 -190.5t177 -71.5q136 0 269 76l26 -101 q-140 -81 -305 -81q-132 0 -216.5 69t-108.5 170q-156 -239 -398 -239q-173 0 -266.5 114t-93.5 285zM209 377q0 -131 58 -211t182 -80q108 0 197.5 79t136 194t46.5 233q0 129 -64 214t-183 85q-110 0 -196.5 -72t-131.5 -188.5t-45 -253.5zM963 539q66 2 126.5 8 t131.5 22.5t122 41t85 66t34 95.5t-38.5 88.5t-106.5 34.5q-132 0 -229.5 -107t-124.5 -249z" />
<glyph unicode="&#x178;" horiz-adv-x="1046" d="M164 1364h139l250 -696l475 696h158l-588 -829l-94 -535h-135l96 553zM418 1604q0 43 28.5 70.5t73.5 27.5q36 0 58 -20.5t22 -55.5q0 -45 -29.5 -73.5t-74.5 -28.5q-36 0 -57 22t-21 58zM791 1604q0 43 28.5 70.5t73.5 27.5q36 0 58 -20.5t22 -55.5q0 -45 -30 -73.5 t-75 -28.5q-36 0 -56.5 22t-20.5 58z" />
<glyph unicode="&#x2c6;" horiz-adv-x="1056" d="M352 1135l266 319h136l164 -319h-127l-111 239l-193 -239h-135z" />
<glyph unicode="&#x2dc;" horiz-adv-x="1038" d="M326 1212q52 101 93.5 137.5t115.5 36.5q36 0 67 -12t78 -39q10 -6 25.5 -15.5t23.5 -14t19.5 -10t20.5 -7.5t19 -2q35 0 56 22t55 81l80 -46q-45 -88 -88.5 -126.5t-106.5 -38.5q-49 0 -145 55q-68 39 -92 43q-9 2 -17 2q-37 0 -61 -24t-63 -89z" />
<glyph unicode="&#x2000;" horiz-adv-x="861" />
<glyph unicode="&#x2001;" horiz-adv-x="1722" />
<glyph unicode="&#x2002;" horiz-adv-x="861" />
<glyph unicode="&#x2003;" horiz-adv-x="1722" />
<glyph unicode="&#x2004;" horiz-adv-x="574" />
<glyph unicode="&#x2005;" horiz-adv-x="430" />
<glyph unicode="&#x2006;" horiz-adv-x="287" />
<glyph unicode="&#x2007;" horiz-adv-x="287" />
<glyph unicode="&#x2008;" horiz-adv-x="215" />
<glyph unicode="&#x2009;" horiz-adv-x="344" />
<glyph unicode="&#x200a;" horiz-adv-x="95" />
<glyph unicode="&#x2010;" horiz-adv-x="714" d="M117 475l16 111h481l-18 -111h-479z" />
<glyph unicode="&#x2011;" horiz-adv-x="714" d="M117 475l16 111h481l-18 -111h-479z" />
<glyph unicode="&#x2012;" horiz-adv-x="714" d="M117 475l16 111h481l-18 -111h-479z" />
<glyph unicode="&#x2013;" horiz-adv-x="1036" d="M164 592l16 110h774l-16 -110h-774z" />
<glyph unicode="&#x2014;" horiz-adv-x="1560" d="M117 475l16 111h1327l-18 -111h-1325z" />
<glyph unicode="&#x2018;" horiz-adv-x="438" d="M205 979q20 143 74 253t149 214l82 -60q-79 -101 -122.5 -200t-57.5 -223z" />
<glyph unicode="&#x2019;" horiz-adv-x="438" d="M184 1022q79 102 123 201t58 223l124 -16q-20 -143 -74 -253t-149 -214z" />
<glyph unicode="&#x201a;" horiz-adv-x="458" d="M-57 -236q78 101 122 200.5t58 223.5l125 -16q-20 -143 -74 -253t-149 -214z" />
<glyph unicode="&#x201c;" horiz-adv-x="819" d="M205 979q20 143 74 253t149 214l82 -60q-79 -101 -122.5 -200t-57.5 -223zM586 979q20 143 74 253t149 214l82 -60q-79 -101 -122.5 -200t-57.5 -223z" />
<glyph unicode="&#x201d;" horiz-adv-x="819" d="M184 1022q79 102 123 201t58 223l124 -16q-20 -143 -74 -253t-149 -214zM565 1022q78 101 122 200.5t58 223.5l125 -16q-20 -143 -74 -253t-149 -214z" />
<glyph unicode="&#x201e;" horiz-adv-x="839" d="M-57 -236q78 101 122 200.5t58 223.5l125 -16q-20 -143 -74 -253t-149 -214zM324 -236q78 101 122 200.5t58 223.5l125 -16q-20 -143 -74 -253t-149 -214z" />
<glyph unicode="&#x2022;" horiz-adv-x="821" d="M174 582q0 102 70.5 174.5t175.5 72.5q106 0 177 -72t71 -175q0 -104 -71 -176t-177 -72q-105 0 -175.5 72t-70.5 176z" />
<glyph unicode="&#x2026;" horiz-adv-x="1486" d="M76 74q0 49 30 78.5t80 29.5q40 0 64 -25t24 -63q0 -45 -30 -76.5t-80 -31.5q-40 0 -64 25t-24 63zM571 74q0 49 30.5 78.5t80.5 29.5q40 0 64 -25t24 -63q0 -45 -30 -76.5t-81 -31.5q-40 0 -64 25t-24 63zM1067 74q0 49 30.5 78.5t80.5 29.5q40 0 64 -25t24 -63 q0 -45 -30 -76.5t-81 -31.5q-40 0 -64 25t-24 63z" />
<glyph unicode="&#x202f;" horiz-adv-x="344" />
<glyph unicode="&#x2039;" horiz-adv-x="686" d="M100 496l406 417l82 -79l-346 -351l221 -348l-98 -63z" />
<glyph unicode="&#x203a;" horiz-adv-x="686" d="M92 152l346 350l-221 348l98 63l265 -424l-406 -417z" />
<glyph unicode="&#x205f;" horiz-adv-x="430" />
<glyph unicode="&#x20ac;" horiz-adv-x="1159" d="M61 455l17 96h190q6 129 37 262h-180l16 96h191q152 480 573 480q150 0 264 -54l-26 -102q-107 49 -238 49q-314 0 -442 -373h551l-17 -96h-563q-32 -140 -35 -262h553l-16 -96h-539q1 -66 10 -119.5t31 -102t56.5 -81t88.5 -51.5t124 -19q126 0 241 45l15 -100 q-51 -23 -126 -37.5t-147 -14.5q-87 0 -158.5 26.5t-119.5 72t-81.5 107.5t-48.5 130.5t-16 143.5h-205z" />
<glyph unicode="&#x2122;" horiz-adv-x="1468" d="M195 1288v76h469v-76h-189v-559h-92v559h-188zM766 729l49 635h92l205 -430l205 430h92l49 -635h-92l-33 490l-170 -365h-102l-170 365l-33 -490h-92z" />
<glyph unicode="&#x25fc;" horiz-adv-x="972" d="M0 0v973h973v-973h-973z" />
</font>
</defs>
</svg>
